<svg xmlns="http://www.w3.org/2000/svg" width="386.445" height="146.314" viewBox="0 0 386.445 146.314">
    <g data-name="그룹 66">
        <path data-name="패스 124" d="M58.804 50.477v8.633q-4.266 3.047-12.8 5.383-8.934 2.031-10.864 2.539a48.1 48.1 0 0 1-7.617 13.3q-7.719 9.547-17.367 9.547a9.9 9.9 0 0 1-7.312-2.844A10.028 10.028 0 0 1 0 79.625q0-6.6 6.5-10.156 5.078-2.844 21.734-7.109 3.859-10.258 6.094-18.687-9.75-1.016-15.133-5.18-6.5-4.977-6.5-14.32a26.4 26.4 0 0 1 5.789-16.859Q24.273.002 31.992.002a12 12 0 0 1 10.359 5.584q3.859 5.586 3.859 15.133a89.7 89.7 0 0 1-2.031 17.063l4.367-.3q.914 0 .914.609 0 4.063-1.473 5.078t-5.434 1.016q-.813 2.945-2.742 8.734t-2.335 7.105a69.876 69.876 0 0 0 9.852-3.047q7.719-3.047 11.476-6.5zm-33.82 19.5q-11.172 2.742-15.133 4.977-3.25 1.828-3.25 4.672a3.823 3.823 0 0 0 3.961 3.961 10.631 10.631 0 0 0 7.008-2.54q3.859-3.25 7.414-11.07zm10.664-32.8a69.463 69.463 0 0 0 2.641-18.078q0-5.484-1.828-8.633a5.708 5.708 0 0 0-5.18-3.148q-4.266 0-7.516 4.875a19.674 19.674 0 0 0-3.25 11.172q0 6.4 4.012 9.75t11.121 4.057zm69.875 13.3v8.633a55.885 55.885 0 0 1-10.613 8.125 18.717 18.717 0 0 1-8.988 2.844q-2.742 0-3.91-2.945t-1.169-10.055a44.585 44.585 0 0 1-9.7 9.445q-5.128 3.555-9.19 3.555-5.789 0-5.789-13.711a49.96 49.96 0 0 1 1.422-11.426 136.554 136.554 0 0 1 5.078-15.793h8.328q-6.6 19.7-6.6 27.219a14.131 14.131 0 0 0 .457 4.367 1.676 1.676 0 0 0 1.676 1.219q1.93 0 6.094-3.555a54.946 54.946 0 0 0 9.547-11.07q2.031-9.141 4.977-18.18h8.327l-3.861 13.917q-1.219 4.164-2.031 8.48a38.488 38.488 0 0 0-.812 6.449q0 3.961 1.727 3.961 2.031 0 5.789-2.895a89.9 89.9 0 0 0 9.241-8.584zm-.2 8.938v-8.43a151.4 151.4 0 0 0 21.938-30.773h7.109l-5.383 22.648 1.219-1.625q4.773-6.7 8.379-9.5a12.182 12.182 0 0 1 7.566-2.793 7.8 7.8 0 0 1 6.449 3.2 13.265 13.265 0 0 1 2.488 8.379 33.945 33.945 0 0 1-8.937 23.055 13.667 13.667 0 0 0 8.019-2.943 74.33 74.33 0 0 0 6.6-5.992q.914-1.016 2.133-2.539.406-.508 1.219-1.625v8.633q-6.8 6.3-7.82 7.008a16.222 16.222 0 0 1-9.544 3.348 19.881 19.881 0 0 1-5.988-1.216 12.391 12.391 0 0 1-6.6 1.625q-5.18 0-5.18-3.148a10.616 10.616 0 0 1 .965-4.52 3.223 3.223 0 0 1 3.1-2.082 10.977 10.977 0 0 1 3.047.508q.508.1 3.25 1.117a21.376 21.376 0 0 0 5.18-8.023 32.787 32.787 0 0 0 2.336-11.984q0-6.4-3.047-6.4-2.437 0-5.789 3.3a54.963 54.963 0 0 0-7.211 9.293 76.553 76.553 0 0 0-8.286 20.01q-3.3 11.984-5.332 19.094-.711 2.641-3.859 2.641-5.281 0-5.281-3.859v-.914a8.954 8.954 0 0 1 .607-2.842q0-.1 1.727-4.367 4.164-10.055 7.617-20.77t6.2-22.09a138.655 138.655 0 0 1-9.293 14.32 73.328 73.328 0 0 1-9.601 10.255zm84.5 8.227 1.523-7.312-1.526 1.624a41.358 41.358 0 0 1-7.363 6.3 11.2 11.2 0 0 1-5.84 1.828 9.655 9.655 0 0 1-8.023-4.164 17.023 17.023 0 0 1-3.148-10.562 28.365 28.365 0 0 1 6.4-18.18q6.4-8.023 14.641-8.023a8.323 8.323 0 0 1 4.625 1.22 30.582 30.582 0 0 1 5.338 5.184l1.422-6.4 8.3-.006-6.802 33.006a38.51 38.51 0 0 0 3.859-3.352q7.617-7.109 8.938-8.328v8.633q-7.312 5.891-14.523 11.68-1.828 10.359-4.723 14.625a9.5 9.5 0 0 1-8.379 4.266 10.456 10.456 0 0 1-7.059-2.488 7.233 7.233 0 0 1-2.895-5.535 8.4 8.4 0 0 1 2.74-5.792q1.523-1.625 9.648-6.6zm-1.625 7.617a29.549 29.549 0 0 0-4.621 3.1q-1.879 1.574-1.879 2.895a3.465 3.465 0 0 0 .609 2.133 2.255 2.255 0 0 0 1.93.813q.914 0 1.879-1.98a35.587 35.587 0 0 0 2.079-6.962zm5.284-24.781 1.817-8.309a44.468 44.468 0 0 0-3.264-3.972q-2.55-2.75-5-2.75-4.082 0-7.855 4.164-4.8 5.281-4.8 14.117a14.3 14.3 0 0 0 1.422 6.8q1.422 2.641 3.759 2.641 2.234 0 5.789-3.148a38.214 38.214 0 0 0 5.283-5.586l1.727-2.133a5.907 5.907 0 0 0 1.016-1.523.78.78 0 0 1 .103-.302zm44.38 17.164 1.523-7.312-1.523 1.625a41.358 41.358 0 0 1-7.363 6.3 11.2 11.2 0 0 1-5.84 1.828 9.655 9.655 0 0 1-8.023-4.164 17.023 17.023 0 0 1-3.148-10.562 28.365 28.365 0 0 1 6.4-18.18q6.4-8.023 14.641-8.023a8.323 8.323 0 0 1 4.625 1.22 30.582 30.582 0 0 1 5.338 5.184l1.422-6.4 8.3-.006-6.8 33.008a38.51 38.51 0 0 0 3.859-3.352q7.617-7.109 8.938-8.328v8.633q-7.312 5.891-14.523 11.68-1.828 10.359-4.723 14.625a9.5 9.5 0 0 1-8.379 4.266 10.456 10.456 0 0 1-7.059-2.488 7.233 7.233 0 0 1-2.895-5.535 8.4 8.4 0 0 1 2.738-5.795q1.523-1.625 9.648-6.6zm-1.625 7.617a29.549 29.549 0 0 0-4.621 3.1q-1.879 1.574-1.879 2.895a3.465 3.465 0 0 0 .609 2.133 2.255 2.255 0 0 0 1.93.813q.914 0 1.879-1.98a35.587 35.587 0 0 0 2.079-6.962zm5.284-24.781 1.817-8.309a44.468 44.468 0 0 0-3.268-3.973q-2.55-2.75-5-2.75-4.082 0-7.855 4.164-4.8 5.281-4.8 14.117a14.3 14.3 0 0 0 1.422 6.8q1.422 2.641 3.759 2.641 2.234 0 5.789-3.148a38.214 38.214 0 0 0 5.283-5.586l1.727-2.133a5.907 5.907 0 0 0 1.016-1.523.78.78 0 0 1 .107-.301zm46.106 0v8.633a47.537 47.537 0 0 1-9.445 7.211q-6.503 3.858-10.971 3.858-3.758 0-4.977-5.281a40.761 40.761 0 0 1-.609-8.328 54.132 54.132 0 0 1 1.727-12.594 113.4 113.4 0 0 1 4.773-14.828h8.531l-1.016 3.047q-3.148 9.445-4.469 15.133a44.473 44.473 0 0 0-1.32 9.852q0 4.875 1.93 4.875 2.539 0 9.75-6.094 3.047-2.641 6.094-5.485zM277.67 7.11q4.977 0 4.977 2.844a13.837 13.837 0 0 1-.812 4.113 9.026 9.026 0 0 1-1.879 3.555q-1.066 1.066-4.012 1.066-3.859 0-3.859-2.539a12.42 12.42 0 0 1 1.574-6.3q1.575-2.739 4.011-2.739zm17.588 22.039h8.512q-1.422 3.758-2.387 6.7t-1.879 6.4a97.359 97.359 0 0 1 12.137-10.207q4.418-2.895 7.77-2.895a5.333 5.333 0 0 1 4.469 2.641 11.327 11.327 0 0 1 1.828 6.6q0 3.047-3.453 13.406a26.734 26.734 0 0 0-1.625 8.125q0 2.945 1.625 2.945 1.32 0 5.688-3.047a57.483 57.483 0 0 0 10.258-9.344v8.633l-2.131 1.832a60.866 60.866 0 0 1-9.6 7.109 14.889 14.889 0 0 1-7.16 2.031 6 6 0 0 1-5.129-2.59 11.608 11.608 0 0 1-1.879-6.957 25.247 25.247 0 0 1 1.523-7.719q3.352-10.156 3.352-12.492 0-3.047-1.523-3.047-2.539 0-16.859 13.609l-1.117 1.016q-.1 1.625-.2 3.2t-.1 2.082v10.156l.3 2.336h-8.125a45.5 45.5 0 0 1-.406-5.789v-8.734q.001-9.242 6.112-26zm68.843 38.492 1.523-7.312-1.523 1.625a41.358 41.358 0 0 1-7.363 6.3 11.2 11.2 0 0 1-5.84 1.828 9.655 9.655 0 0 1-8.028-4.168 17.023 17.023 0 0 1-3.148-10.562 28.365 28.365 0 0 1 6.4-18.18q6.4-8.023 14.641-8.023a8.323 8.323 0 0 1 4.625 1.22 30.583 30.583 0 0 1 5.338 5.184l1.422-6.4 8.3-.006-6.8 33.008a38.512 38.512 0 0 0 3.859-3.352q7.617-7.109 8.938-8.328v8.633q-7.312 5.891-14.523 11.68-1.828 10.359-4.723 14.625a9.5 9.5 0 0 1-8.379 4.266 10.456 10.456 0 0 1-7.059-2.488 7.233 7.233 0 0 1-2.895-5.535 8.4 8.4 0 0 1 2.743-5.79q1.523-1.625 9.648-6.6zm-1.625 7.617a29.549 29.549 0 0 0-4.621 3.1q-1.879 1.574-1.879 2.895a3.465 3.465 0 0 0 .609 2.133 2.255 2.255 0 0 0 1.93.813q.914 0 1.879-1.98a35.587 35.587 0 0 0 2.082-6.961zm5.284-24.781 1.817-8.309a44.468 44.468 0 0 0-3.264-3.972q-2.55-2.75-5-2.75-4.082 0-7.855 4.164-4.8 5.281-4.8 14.117a14.3 14.3 0 0 0 1.422 6.8q1.422 2.641 3.759 2.641 2.234 0 5.789-3.148a38.213 38.213 0 0 0 5.283-5.586l1.727-2.133a5.907 5.907 0 0 0 1.016-1.523.779.779 0 0 1 .107-.301z"/>
        <path data-name="패스 125" d="M67.186 134.638a.5.5 0 0 1-.315.252.727.727 0 0 1-.525-.21q-1.008-.756-2.142-1.743t-2.226-2.1q-1.092-1.113-2.142-2.31t-1.932-2.373a41.484 41.484 0 0 1-4.788 5.061 62.831 62.831 0 0 1-6.132 4.809 1.852 1.852 0 0 1-.42.189.283.283 0 0 1-.336-.105l-1.008-1.302a.532.532 0 0 1-.126-.44.55.55 0 0 1 .21-.357 48.287 48.287 0 0 0 10.479-9.618 29.579 29.579 0 0 0 5.229-10.165 1.206 1.206 0 0 0 .021-.861q-.147-.273-.735-.273H47.57q-.5 0-.5-.546v-1.47q0-.5.588-.5h13.774q2.184 0 2.772.756t0 2.688a37.514 37.514 0 0 1-4.62 9.87q.966 1.344 2.058 2.646t2.184 2.457q1.092 1.155 2.184 2.1a19.307 19.307 0 0 0 2.06 1.573.482.482 0 0 1 .21.378.614.614 0 0 1-.126.378zm8.694 10.92a.52.52 0 0 1-.588.588H73.57a.52.52 0 0 1-.588-.588V108.01a.52.52 0 0 1 .588-.588h1.722a.52.52 0 0 1 .588.588zm12.012-36.456a.413.413 0 0 1 .21-.378.81.81 0 0 1 .42-.126h22.218a5.088 5.088 0 0 1 1.617.21 2.092 2.092 0 0 1 .945.609 2.426 2.426 0 0 1 .483 1.029 6.74 6.74 0 0 1 .147 1.512 40.133 40.133 0 0 1-.4 6.678q-.483 3.4-1.323 7.35h6.93a.729.729 0 0 1 .42.147.462.462 0 0 1 .21.4v1.428a.482.482 0 0 1-.21.378.672.672 0 0 1-.42.168h-16.505v16.759a.7.7 0 0 1-.147.441.479.479 0 0 1-.4.189h-1.805a.5.5 0 0 1-.378-.189.643.643 0 0 1-.168-.441v-16.76H83.44a.643.643 0 0 1-.441-.168.5.5 0 0 1-.189-.378v-1.428a.479.479 0 0 1 .189-.4.7.7 0 0 1 .441-.147h25.914q.42-1.638.8-3.57t.609-3.864q.231-1.932.315-3.654a24.8 24.8 0 0 0 0-2.9 1.466 1.466 0 0 0-.233-.731 1.163 1.163 0 0 0-.735-.147H88.522a.729.729 0 0 1-.42-.147.428.428 0 0 1-.21-.357zm70.728 16.212a.729.729 0 0 1 .42.147.462.462 0 0 1 .21.4v1.428a.482.482 0 0 1-.21.378.672.672 0 0 1-.42.168h-35.7a.643.643 0 0 1-.441-.168.5.5 0 0 1-.189-.378v-1.428a.479.479 0 0 1 .189-.4.7.7 0 0 1 .441-.147zm-4.368 20.076a.439.439 0 0 1-.189.357.593.593 0 0 1-.357.147H131.32a3.341 3.341 0 0 1-2.583-.735 3.961 3.961 0 0 1-.609-2.5v-2.477a3 3 0 0 1 .735-2.373 4.221 4.221 0 0 1 2.625-.609h18.1q.588 0 .735-.168a1.375 1.375 0 0 0 .147-.8v-1.6a1.375 1.375 0 0 0-.147-.8q-.147-.168-.735-.168h-20.956a.708.708 0 0 1-.4-.126.386.386 0 0 1-.189-.336v-1.47a.386.386 0 0 1 .189-.336.708.708 0 0 1 .4-.126h21.378a7.436 7.436 0 0 1 1.638.147 2.262 2.262 0 0 1 1.008.483 1.783 1.783 0 0 1 .525.945 6.459 6.459 0 0 1 .147 1.491v2.268a3 3 0 0 1-.735 2.373 4.221 4.221 0 0 1-2.625.609H131.87q-.588 0-.735.168a1.375 1.375 0 0 0-.147.8v1.938a1.242 1.242 0 0 0 .164.774 1.047 1.047 0 0 0 .756.189h21.756a.708.708 0 0 1 .4.126.386.386 0 0 1 .189.336zm-.336-24.024a.439.439 0 0 1-.189.357.593.593 0 0 1-.357.147h-21.882a3.341 3.341 0 0 1-2.583-.735 3.961 3.961 0 0 1-.609-2.5v-2.269a3 3 0 0 1 .735-2.373 4.221 4.221 0 0 1 2.625-.609h17.808a1.163 1.163 0 0 0 .735-.147 1.366 1.366 0 0 0 .147-.819v-1.722a1.375 1.375 0 0 0-.147-.8q-.147-.168-.735-.168h-20.58a.708.708 0 0 1-.4-.126.386.386 0 0 1-.188-.336v-1.512a.386.386 0 0 1 .189-.336.708.708 0 0 1 .4-.126h21.042a7.436 7.436 0 0 1 1.638.147 2.262 2.262 0 0 1 1.008.483 1.783 1.783 0 0 1 .525.945 6.459 6.459 0 0 1 .147 1.491v2.436a2.994 2.994 0 0 1-.735 2.394 4.339 4.339 0 0 1-2.625.588h-17.851q-.588 0-.735.168a1.375 1.375 0 0 0-.147.8v1.764a1.242 1.242 0 0 0 .168.777 1.047 1.047 0 0 0 .756.189h21.252a.708.708 0 0 1 .4.126.386.386 0 0 1 .189.336zm42.966-4.032a6.579 6.579 0 0 1-.756 3.087 8.065 8.065 0 0 1-2.1 2.541 10.589 10.589 0 0 1-3.192 1.743 12.057 12.057 0 0 1-4.032.651 11.913 11.913 0 0 1-3.948-.63 9.839 9.839 0 0 1-3.129-1.743 8.428 8.428 0 0 1-2.079-2.562 6.579 6.579 0 0 1-.756-3.087 7.184 7.184 0 0 1 .756-3.3 7.809 7.809 0 0 1 2.079-2.562 9.378 9.378 0 0 1 3.129-1.638 13.124 13.124 0 0 1 3.948-.568 12.467 12.467 0 0 1 3.843.588 10.7 10.7 0 0 1 3.213 1.638 7.98 7.98 0 0 1 2.205 2.541 6.734 6.734 0 0 1 .819 3.301zm-2.94-.042a4.63 4.63 0 0 0-.567-2.31 5.144 5.144 0 0 0-1.554-1.7 7.309 7.309 0 0 0-2.289-1.05 10.279 10.279 0 0 0-2.73-.357 9.617 9.617 0 0 0-2.772.378 7.183 7.183 0 0 0-2.2 1.071 4.89 4.89 0 0 0-1.47 1.7 4.836 4.836 0 0 0-.525 2.268 4.907 4.907 0 0 0 .5 2.226 5.16 5.16 0 0 0 1.427 1.748 6.7 6.7 0 0 0 2.205 1.134 9.5 9.5 0 0 0 2.835.4 8.837 8.837 0 0 0 2.73-.42 7.815 7.815 0 0 0 2.289-1.155 5.567 5.567 0 0 0 1.549-1.749 4.381 4.381 0 0 0 .572-2.184zm12.138 28.266a.52.52 0 0 1-.588.588h-1.722a.52.52 0 0 1-.588-.588V108.01a.52.52 0 0 1 .588-.588h1.722a.52.52 0 0 1 .588.588zm-6.01-16.926a.568.568 0 0 1 .4.063.436.436 0 0 1 .231.273l.21 1.428q.042.588-.5.63-2.73.42-5.754.735t-6.048.525v12.516a.7.7 0 0 1-.147.441.479.479 0 0 1-.4.189h-1.806a.5.5 0 0 1-.378-.189.643.643 0 0 1-.168-.441v-12.39q-1.344.084-2.9.126l-3.045.084q-1.491.042-2.835.063t-2.224-.019a.643.643 0 0 1-.441-.168.5.5 0 0 1-.189-.378v-1.43a.479.479 0 0 1 .189-.4.7.7 0 0 1 .441-.147q1.218 0 2.919-.021t3.486-.063q1.785-.042 3.444-.1l2.793-.1q1.218-.042 2.835-.168t3.36-.294q1.743-.168 3.444-.357t3.083-.408zm34.566-2.6a6.3 6.3 0 0 1-.672 2.856 7.621 7.621 0 0 1-1.827 2.352 8.418 8.418 0 0 1-2.751 1.575 10.215 10.215 0 0 1-3.444.567 10.215 10.215 0 0 1-3.444-.567 8.418 8.418 0 0 1-2.751-1.575 7.35 7.35 0 0 1-1.806-2.352 6.468 6.468 0 0 1-.651-2.856 6.335 6.335 0 0 1 .651-2.835 7.192 7.192 0 0 1 1.806-2.31 8.634 8.634 0 0 1 2.751-1.554 10.215 10.215 0 0 1 3.444-.567 10.215 10.215 0 0 1 3.444.567 8.634 8.634 0 0 1 2.751 1.554 7.458 7.458 0 0 1 1.827 2.31 6.172 6.172 0 0 1 .676 2.831zm9.454 10.664a.52.52 0 0 1-.588.588h-1.722a.52.52 0 0 1-.588-.588V108.01a.52.52 0 0 1 .588-.588h1.722a.52.52 0 0 1 .588.588v13.9h5.8a.7.7 0 0 1 .441.147.479.479 0 0 1 .189.4v1.428a.5.5 0 0 1-.189.378.643.643 0 0 1-.441.168h-5.8zm-12.306-10.668a4.04 4.04 0 0 0-.441-1.869 4.611 4.611 0 0 0-1.218-1.491 5.828 5.828 0 0 0-1.848-.987 7.33 7.33 0 0 0-2.331-.357 7.138 7.138 0 0 0-2.31.357 6.146 6.146 0 0 0-1.848.987 4.5 4.5 0 0 0-1.239 1.491 4.04 4.04 0 0 0-.441 1.869 4.168 4.168 0 0 0 .441 1.89 4.438 4.438 0 0 0 1.239 1.512 6.519 6.519 0 0 0 1.848 1.008 6.776 6.776 0 0 0 2.31.378 6.958 6.958 0 0 0 2.331-.378 6.159 6.159 0 0 0 1.848-1.008 4.543 4.543 0 0 0 1.218-1.512 4.168 4.168 0 0 0 .441-1.89zm14.2 18.984a.413.413 0 0 1-.21.378.81.81 0 0 1-.42.126h-21.676a3.341 3.341 0 0 1-2.583-.735 3.876 3.876 0 0 1-.609-2.457v-5.8a.52.52 0 0 1 .584-.584h1.722a.52.52 0 0 1 .588.588v5.628q0 .588.189.714a1.579 1.579 0 0 0 .777.126h21a.729.729 0 0 1 .42.147.428.428 0 0 1 .21.357zM238.17 116.2q0 .546-.63.546h-23.186a.594.594 0 0 1-.4-.168.539.539 0 0 1-.189-.42v-1.344a.539.539 0 0 1 .189-.42.594.594 0 0 1 .4-.168h23.184q.63 0 .63.546zm-6.132-5.712q0 .546-.63.546h-11.51a.708.708 0 0 1-.4-.126.424.424 0 0 1-.189-.378v-1.47a.57.57 0 0 1 .168-.42.522.522 0 0 1 .378-.168h11.55q.63 0 .63.588zm64.428 16.086a.413.413 0 0 1-.21.378.81.81 0 0 1-.42.126H284.07v9.912h16.51a.729.729 0 0 1 .42.147.462.462 0 0 1 .21.4v1.429a.482.482 0 0 1-.21.378.672.672 0 0 1-.42.168h-35.7a.643.643 0 0 1-.441-.168.5.5 0 0 1-.189-.378v-1.43a.479.479 0 0 1 .189-.4.7.7 0 0 1 .441-.147h16.3v-9.912h-7.9q-1.974 0-2.583-.819a4.273 4.273 0 0 1-.609-2.541v-13.23a.52.52 0 0 1 .588-.588h1.722a.52.52 0 0 1 .588.588v13.189q0 .588.189.735a1.385 1.385 0 0 0 .777.147h21.882a.729.729 0 0 1 .42.147.428.428 0 0 1 .21.357zm13.86 2.394a3.532 3.532 0 0 1-2.541-.756 3.679 3.679 0 0 1-.651-2.478v-5.124a3 3 0 0 1 .735-2.373 4.221 4.221 0 0 1 2.625-.609h8.276a1.143 1.143 0 0 0 .756-.168 1.234 1.234 0 0 0 .168-.8v-3.948a1.375 1.375 0 0 0-.147-.8q-.147-.168-.735-.168h-11q-.5 0-.5-.546v-1.47a.445.445 0 0 1 .5-.5h11.458a7.436 7.436 0 0 1 1.638.147 2.262 2.262 0 0 1 1.008.483 1.783 1.783 0 0 1 .525.945 6.459 6.459 0 0 1 .147 1.491v4.872a3 3 0 0 1-.735 2.373 4.221 4.221 0 0 1-2.625.609h-8.316q-.588 0-.735.168a1.375 1.375 0 0 0-.147.8v4.41q0 .966.924.966 1.974 0 3.759-.042t3.486-.189q1.7-.147 3.4-.378t3.549-.567a.925.925 0 0 1 .567 0 .649.649 0 0 1 .231.42l.252 1.344q.084.378-.063.5a1.258 1.258 0 0 1-.525.21 67.318 67.318 0 0 1-7.14.966q-3.61.296-8.146.21zm23.056-15.372v-5.586a.52.52 0 0 1 .588-.588h1.722a.52.52 0 0 1 .588.588v22.47a.52.52 0 0 1-.588.588h-1.722a.52.52 0 0 1-.588-.588v-7.56h-7.35q-.546 0-.546-.5v-1.47q0-.5.546-.5h7.35v-4.368h-7.35q-.546 0-.546-.5v-1.47q0-.5.546-.5zm-21.588 20.244a.413.413 0 0 1 .21-.378.81.81 0 0 1 .42-.126h20.664a3.341 3.341 0 0 1 2.583.735 3.876 3.876 0 0 1 .609 2.457v9.2a.52.52 0 0 1-.588.588h-1.722a.52.52 0 0 1-.588-.588v-8.99q0-.588-.189-.735a1.384 1.384 0 0 0-.777-.147h-19.992a.729.729 0 0 1-.42-.147.428.428 0 0 1-.21-.357z"/>
    </g>
</svg>
