<svg xmlns="http://www.w3.org/2000/svg" width="523" height="506" viewBox="0 0 523 506">
    <g data-name="그룹 469">
        <path data-name="사각형 237" style="fill:#fff" d="M0 0h523v506H0z"/>
        <g data-name="그룹 468">
            <path data-name="패스 114" d="M245.958 292.721q0 4.318-2.032 6.414t-7.493 2.1h-58.8q-5.588 0-7.62-1.905t-2.032-6.985v-33.276a1.383 1.383 0 0 1 .508-1.08 1.691 1.691 0 0 1 1.143-.444h11.176a1.935 1.935 0 0 1 1.207.444 1.328 1.328 0 0 1 .571 1.08v10.922h48.768v-10.922a1.579 1.579 0 0 1 .508-1.143 1.579 1.579 0 0 1 1.143-.508h11.3a1.579 1.579 0 0 1 1.143.508 1.579 1.579 0 0 1 .51 1.143zm-81.153-64.516q-2.286.381-2.921-1.524l-2.413-7.239a1.6 1.6 0 0 1 .315-1.524 2.092 2.092 0 0 1 1.206-.889q8-1.4 16.447-3.619t15.938-4.7q7.493-2.477 13.589-5.017a98.443 98.443 0 0 0 9.525-4.445 4.525 4.525 0 0 0 2.032-1.715q.381-.825-2.286-.826h-45.844a1.459 1.459 0 0 1-1.651-1.651v-8.507q0-1.524 1.651-1.524h60.325a18.164 18.164 0 0 1 8.128 1.587 5 5 0 0 1 3.175 4.636 8 8 0 0 1-1.714 5.021 26.023 26.023 0 0 1-2.985 3.365 66.808 66.808 0 0 1-14.478 9.652q3.3.889 7.366 1.778t8.255 1.714q4.191.825 8.319 1.588t7.683 1.27a2.206 2.206 0 0 1 1.524.762 1.6 1.6 0 0 1 .127 1.651l-2.54 6.858a2.928 2.928 0 0 1-1.016 1.207 2.008 2.008 0 0 1-1.776.313q-4.7-.762-10.287-1.841t-11.369-2.417q-5.778-1.333-11.493-2.794t-10.668-2.857q-9.271 3.556-19.939 6.54t-22.225 5.147zm99.314 17.272a2.043 2.043 0 0 1-.633 1.334 1.772 1.772 0 0 1-1.27.7h-48.008v13.843a1.572 1.572 0 0 1-1.778 1.778h-11.044a1.572 1.572 0 0 1-1.778-1.778v-13.845h-48.006a1.564 1.564 0 0 1-1.27-.635 2.186 2.186 0 0 1-.508-1.4v-8.255a1.944 1.944 0 0 1 .508-1.333 1.629 1.629 0 0 1 1.27-.571h110.612a1.829 1.829 0 0 1 1.27.635 1.83 1.83 0 0 1 .635 1.27zm-32.766 36.068h-48.767v5.842q0 2.159 2.413 2.159h43.942q2.413 0 2.413-2.159zm139.827-2.54a17.718 17.718 0 0 1-2.858 9.779 24.935 24.935 0 0 1-7.937 7.62 41.124 41.124 0 0 1-12.065 4.89 63.294 63.294 0 0 1-15.113 1.715 66.219 66.219 0 0 1-15.748-1.715 39.575 39.575 0 0 1-11.873-4.825 22.4 22.4 0 0 1-7.493-7.556 19.236 19.236 0 0 1-2.6-9.906 18.662 18.662 0 0 1 2.6-9.715 23.18 23.18 0 0 1 7.493-7.559 38.54 38.54 0 0 1 11.875-4.889 66.219 66.219 0 0 1 15.746-1.715 63.294 63.294 0 0 1 15.113 1.715 42.271 42.271 0 0 1 12.066 4.825 24.6 24.6 0 0 1 7.938 7.493 17.625 17.625 0 0 1 2.856 9.843zm-14.986.381a8.692 8.692 0 0 0-1.841-5.524 14.441 14.441 0 0 0-5.017-3.937 28.94 28.94 0 0 0-7.366-2.413 45.262 45.262 0 0 0-8.763-.825q-10.287 0-16.51 3.175t-6.223 9.524a8.592 8.592 0 0 0 1.651 5.27 12.884 12.884 0 0 0 4.7 3.747 26.957 26.957 0 0 0 7.238 2.286 51.2 51.2 0 0 0 9.144.762 48.92 48.92 0 0 0 8.763-.762 28.968 28.968 0 0 0 7.366-2.286 14.57 14.57 0 0 0 5.017-3.747 8 8 0 0 0 1.841-5.27zm-72.771-24.892a4.1 4.1 0 0 1-2.413.444 2.4 2.4 0 0 1-1.651-1.461l-3.173-6.603a3.615 3.615 0 0 1-.317-2.159 2.4 2.4 0 0 1 1.46-1.651 83.134 83.134 0 0 0 26.033-16.764q10.414-10.16 13.97-21.717a5.37 5.37 0 0 0 .381-2.794q-.254-.762-2.159-.762h-34.163a1.52 1.52 0 0 1-1.333-.635 2.383 2.383 0 0 1-.444-1.4v-8.382q0-1.778 1.9-1.778h42.672q5.588 0 7.874 1.778t2.286 5.842a11.929 11.929 0 0 1-.127 1.461q-.127.953-.318 1.968t-.381 1.841q-.191.825-.318 1.206a70.233 70.233 0 0 1-17.267 30.357q-12.449 12.954-32.512 21.209zm72.263-2.925v-67.31a1.459 1.459 0 0 1 1.651-1.651h11.3a1.459 1.459 0 0 1 1.651 1.651v67.31q0 1.778-1.651 1.778h-11.3q-1.651.004-1.651-1.778z"/>
            <path data-name="패스 115" d="M174.497 343.97a.532.532 0 0 1-.338.27.779.779 0 0 1-.562-.225q-1.08-.81-2.3-1.867t-2.38-2.248q-1.17-1.192-2.295-2.475t-2.07-2.542a44.447 44.447 0 0 1-5.13 5.422 67.319 67.319 0 0 1-6.57 5.153 1.984 1.984 0 0 1-.45.2.3.3 0 0 1-.36-.112l-1.08-1.395a.57.57 0 0 1-.135-.472.589.589 0 0 1 .225-.383 51.736 51.736 0 0 0 11.228-10.3 31.692 31.692 0 0 0 5.6-10.89 1.292 1.292 0 0 0 .022-.923q-.157-.292-.787-.292H153.48q-.54 0-.54-.585v-1.575q0-.54.63-.54h14.76q2.34 0 2.97.81t0 2.88a40.193 40.193 0 0 1-4.95 10.575q1.035 1.44 2.205 2.835t2.34 2.632q1.17 1.237 2.34 2.25a20.686 20.686 0 0 0 2.205 1.688.516.516 0 0 1 .225.4.658.658 0 0 1-.135.405zm9.315 11.7a.557.557 0 0 1-.63.63h-1.845a.557.557 0 0 1-.63-.63v-40.23a.557.557 0 0 1 .63-.63h1.845a.557.557 0 0 1 .63.63zm12.87-39.06a.442.442 0 0 1 .225-.4.868.868 0 0 1 .45-.135h23.805a5.452 5.452 0 0 1 1.732.225 2.242 2.242 0 0 1 1.013.653 2.6 2.6 0 0 1 .517 1.1 7.222 7.222 0 0 1 .158 1.62 43 43 0 0 1-.427 7.155q-.518 3.642-1.418 7.872h7.425a.781.781 0 0 1 .45.158.5.5 0 0 1 .225.428v1.53a.516.516 0 0 1-.225.4.721.721 0 0 1-.45.18h-17.685v17.959a.748.748 0 0 1-.157.472.513.513 0 0 1-.428.2h-1.935a.533.533 0 0 1-.4-.2.689.689 0 0 1-.18-.472V337.4h-17.46a.689.689 0 0 1-.473-.18.533.533 0 0 1-.2-.4v-1.53a.513.513 0 0 1 .2-.428.748.748 0 0 1 .473-.158h27.76q.45-1.755.855-3.825t.653-4.14q.247-2.07.338-3.915a26.567 26.567 0 0 0 0-3.105 1.57 1.57 0 0 0-.248-.788 1.246 1.246 0 0 0-.787-.157h-23.131a.781.781 0 0 1-.45-.157.459.459 0 0 1-.225-.382zm75.78 17.37a.781.781 0 0 1 .45.158.5.5 0 0 1 .225.427v1.53a.516.516 0 0 1-.225.4.72.72 0 0 1-.45.18h-38.25a.689.689 0 0 1-.472-.18.533.533 0 0 1-.2-.4v-1.53a.513.513 0 0 1 .2-.427.748.748 0 0 1 .472-.158zm-4.68 21.51a.47.47 0 0 1-.2.382.636.636 0 0 1-.382.158h-23.988q-2.115 0-2.768-.788a4.244 4.244 0 0 1-.653-2.677v-2.655a3.215 3.215 0 0 1 .788-2.542 4.523 4.523 0 0 1 2.813-.652h19.395q.63 0 .787-.18a1.473 1.473 0 0 0 .157-.855v-1.711a1.473 1.473 0 0 0-.157-.855q-.157-.18-.787-.18h-22.455a.758.758 0 0 1-.428-.135.414.414 0 0 1-.2-.36v-1.575a.414.414 0 0 1 .2-.36.758.758 0 0 1 .428-.135h22.905a7.967 7.967 0 0 1 1.755.158 2.424 2.424 0 0 1 1.08.517 1.91 1.91 0 0 1 .565 1.013 6.92 6.92 0 0 1 .157 1.6v2.43a3.215 3.215 0 0 1-.787 2.542 4.523 4.523 0 0 1-2.815.65h-19.4q-.63 0-.787.18a1.473 1.473 0 0 0-.157.855v2.07a1.331 1.331 0 0 0 .18.833 1.122 1.122 0 0 0 .81.2h23.314a.758.758 0 0 1 .427.135.414.414 0 0 1 .2.36zm-.36-25.74a.47.47 0 0 1-.2.382.636.636 0 0 1-.383.158h-23.447q-2.115 0-2.767-.788a4.244 4.244 0 0 1-.653-2.677V324.4a3.215 3.215 0 0 1 .788-2.543 4.523 4.523 0 0 1 2.812-.652h19.08a1.246 1.246 0 0 0 .788-.157 1.464 1.464 0 0 0 .157-.878v-1.85a1.473 1.473 0 0 0-.157-.855q-.158-.18-.788-.18h-22.05a.758.758 0 0 1-.428-.135.414.414 0 0 1-.2-.36v-1.62a.414.414 0 0 1 .2-.36.758.758 0 0 1 .428-.135h22.545a7.967 7.967 0 0 1 1.755.158 2.424 2.424 0 0 1 1.08.518 1.91 1.91 0 0 1 .563 1.012 6.92 6.92 0 0 1 .158 1.6v2.61a3.208 3.208 0 0 1-.788 2.565 4.649 4.649 0 0 1-2.812.63h-19.126q-.63 0-.788.18a1.473 1.473 0 0 0-.157.855v1.89a1.331 1.331 0 0 0 .18.832 1.122 1.122 0 0 0 .81.2h22.77a.758.758 0 0 1 .428.135.414.414 0 0 1 .2.36zm46.035-4.32a7.049 7.049 0 0 1-.81 3.307 8.642 8.642 0 0 1-2.25 2.722 11.345 11.345 0 0 1-3.42 1.868 12.918 12.918 0 0 1-4.32.7 12.764 12.764 0 0 1-4.23-.675 10.541 10.541 0 0 1-3.353-1.868 9.03 9.03 0 0 1-2.227-2.745 7.049 7.049 0 0 1-.81-3.307 7.7 7.7 0 0 1 .81-3.532 8.367 8.367 0 0 1 2.227-2.745 10.048 10.048 0 0 1 3.353-1.755 14.061 14.061 0 0 1 4.23-.607 13.357 13.357 0 0 1 4.118.63 11.462 11.462 0 0 1 3.442 1.755 8.549 8.549 0 0 1 2.362 2.722 7.215 7.215 0 0 1 .878 3.53zm-3.15-.045a4.961 4.961 0 0 0-.608-2.475 5.511 5.511 0 0 0-1.662-1.822 7.831 7.831 0 0 0-2.452-1.125 11.013 11.013 0 0 0-2.925-.382 10.3 10.3 0 0 0-2.97.405 7.7 7.7 0 0 0-2.362 1.147 5.24 5.24 0 0 0-1.575 1.823 5.181 5.181 0 0 0-.562 2.43 5.258 5.258 0 0 0 .54 2.385 5.529 5.529 0 0 0 1.53 1.868 7.182 7.182 0 0 0 2.363 1.215 10.181 10.181 0 0 0 3.037.427 9.468 9.468 0 0 0 2.925-.45 8.373 8.373 0 0 0 2.451-1.238 5.964 5.964 0 0 0 1.665-1.868 4.694 4.694 0 0 0 .605-2.34zm13 30.285a.557.557 0 0 1-.63.63h-1.84a.557.557 0 0 1-.63-.63v-40.23a.557.557 0 0 1 .63-.63h1.845a.557.557 0 0 1 .63.63zm-6.43-18.135a.609.609 0 0 1 .427.068.467.467 0 0 1 .248.293l.225 1.53q.045.63-.54.675-2.925.45-6.165.787t-6.48.563v13.409a.748.748 0 0 1-.157.472.513.513 0 0 1-.428.2h-1.935a.533.533 0 0 1-.4-.2.689.689 0 0 1-.18-.472v-13.275q-1.44.09-3.105.135l-3.262.09q-1.6.045-3.038.067t-2.39-.022a.689.689 0 0 1-.472-.18.533.533 0 0 1-.2-.405v-1.53a.513.513 0 0 1 .2-.427.748.748 0 0 1 .472-.158q1.305 0 3.127-.023t3.735-.068q1.912-.045 3.69-.112l2.988-.112q1.3-.045 3.037-.18t3.6-.315q1.867-.18 3.69-.383t3.313-.427zm37.035-2.79a6.751 6.751 0 0 1-.72 3.06 8.166 8.166 0 0 1-1.955 2.52 9.02 9.02 0 0 1-2.95 1.688 10.945 10.945 0 0 1-3.69.607 10.945 10.945 0 0 1-3.69-.607 9.019 9.019 0 0 1-2.948-1.688 7.875 7.875 0 0 1-1.935-2.52 6.93 6.93 0 0 1-.7-3.06 6.788 6.788 0 0 1 .7-3.038 7.706 7.706 0 0 1 1.935-2.475 9.25 9.25 0 0 1 2.948-1.665 10.945 10.945 0 0 1 3.69-.608 10.945 10.945 0 0 1 3.69.608 9.251 9.251 0 0 1 2.95 1.666 7.991 7.991 0 0 1 1.957 2.475 6.613 6.613 0 0 1 .718 3.037zm10.125 11.43a.557.557 0 0 1-.63.63h-1.845a.557.557 0 0 1-.63-.63V315.44a.557.557 0 0 1 .63-.63h1.845a.557.557 0 0 1 .63.63v14.9h6.21a.748.748 0 0 1 .473.158.513.513 0 0 1 .2.427v1.53a.533.533 0 0 1-.2.4.689.689 0 0 1-.473.18h-6.21zm-13.185-11.43a4.329 4.329 0 0 0-.472-2 4.941 4.941 0 0 0-1.305-1.6 6.244 6.244 0 0 0-1.98-1.058 7.854 7.854 0 0 0-2.5-.382 7.648 7.648 0 0 0-2.475.382 6.585 6.585 0 0 0-1.98 1.058 4.824 4.824 0 0 0-1.327 1.6 4.329 4.329 0 0 0-.472 2 4.466 4.466 0 0 0 .472 2.025 4.755 4.755 0 0 0 1.324 1.62 6.985 6.985 0 0 0 1.98 1.08 7.26 7.26 0 0 0 2.475.4 7.455 7.455 0 0 0 2.5-.4 6.6 6.6 0 0 0 1.98-1.08 4.867 4.867 0 0 0 1.305-1.62 4.466 4.466 0 0 0 .475-2.025zm15.21 20.34a.442.442 0 0 1-.225.405.868.868 0 0 1-.45.135h-23.22q-2.115 0-2.768-.787a4.153 4.153 0 0 1-.652-2.638v-6.21a.557.557 0 0 1 .63-.63h1.845a.557.557 0 0 1 .63.63v6.03q0 .63.2.765a1.692 1.692 0 0 0 .832.135h22.5a.781.781 0 0 1 .45.158.459.459 0 0 1 .225.382zm-8.37-30.87q0 .585-.675.585h-24.84a.636.636 0 0 1-.427-.18.577.577 0 0 1-.2-.45v-1.44a.577.577 0 0 1 .2-.45.636.636 0 0 1 .427-.18h24.84q.675 0 .675.585zm-6.57-6.12q0 .585-.675.585h-12.33a.758.758 0 0 1-.428-.135.454.454 0 0 1-.2-.405v-1.575a.611.611 0 0 1 .18-.45.56.56 0 0 1 .4-.18h12.378q.675 0 .675.63z"/>
            <g data-name="그룹 470" style="isolation:isolate">
                <g data-name="그룹 462">
                    <path data-name="패스 111" d="M-3.24 30.778s2.258-3.267 3.011-10.961S-.229 0-.229 0" transform="translate(262.923 159.224)" style="fill:none;stroke:#000;stroke-linecap:round;stroke-width:2.6px"/>
                    <g data-name="패스 109">
                        <path data-name="패스 120" d="M16.511 55.3c-8.47 0-15.361-9.313-15.361-20.764 0-4.743 2.8-12.078 8.09-21.211Q12.634 7.5 16.51 1.978q3.874 5.522 7.272 11.347c5.293 9.133 8.09 16.468 8.09 21.211 0 11.45-6.891 20.767-15.362 20.767z" transform="rotate(73.02 71.625 270.503)" style="fill:#00b786"/>
                        <path data-name="패스 121" d="M310.422 139.96q-5.584-1.757-11.289-3.103c-10.094-2.353-17.727-2.895-22.073-1.568a25.76 25.76 0 0 0-7.144 3.424 20.969 20.969 0 0 0-5.076 4.88c-2.615 3.594-3.46 7.505-2.388 11.015s3.963 6.282 8.134 7.804a20.987 20.987 0 0 0 6.937 1.21 25.76 25.76 0 0 0 7.839-1.15c4.339-1.325 10.357-6.027 17.403-13.599q3.994-4.312 7.658-8.913m3.819-1.166s-16.633 22.343-28.21 25.878-23.12-.669-25.783-9.391 4.563-18.657 16.14-22.192 37.852 5.705 37.852 5.705z"/>
                    </g>
                    <g data-name="패스 110">
                        <path data-name="패스 122" d="M15.2 53.52c-3.68 0-7.167-2.037-9.817-5.736a21.862 21.862 0 0 1-3.093-6.41 27.323 27.323 0 0 1-1.14-7.928c0-4.6 2.576-11.7 7.45-20.545q3.08-5.559 6.605-10.853 3.522 5.29 6.6 10.853c4.873 8.845 7.45 15.949 7.45 20.545a27.318 27.318 0 0 1-1.146 7.928 21.862 21.862 0 0 1-3.093 6.41c-2.65 3.7-6.136 5.736-9.816 5.736z" transform="rotate(-80 201.538 -40.755)" style="fill:#00b786"/>
                        <path data-name="패스 123" d="M213.394 150.548q3.982 3.712 8.22 7.136c7.704 6.209 14.068 9.893 18.4 10.657a26.175 26.175 0 0 0 7.675.236 20.707 20.707 0 0 0 6.49-1.828c3.75-1.8 6.139-4.576 6.712-7.826s-.718-6.68-3.634-9.659a20.657 20.657 0 0 0-5.474-3.937 26.14 26.14 0 0 0-7.287-2.402c-4.333-.764-11.572.521-20.935 3.721q-5.15 1.766-10.166 3.897m-4.079-.714s24.034-11.197 35.578-9.161 19.72 10.382 18.262 18.654-11.998 13.32-23.541 11.284-30.299-20.777-30.299-20.777z"/>
                    </g>
                    <path data-name="패스 112" d="M.277 15.057s7.238-6.976 13.678-10.1S28.6 1.277 28.6 1.277" transform="rotate(3 -2574.747 5105.68)" style="fill:none;stroke:#000;stroke-linecap:round;stroke-width:2.6px"/>
                    <path data-name="패스 113" d="M20.69 10.031a100.1 100.1 0 0 0-9.965-5.665A103.523 103.523 0 0 0 0 0" transform="rotate(-18 602.675 -674.426)" style="fill:none;stroke:#000;stroke-linecap:round;stroke-width:2.6px"/>
                </g>
            </g>
        </g>
    </g>
</svg>
