<svg xmlns="http://www.w3.org/2000/svg" width="95" height="36" viewBox="0 0 95 36">
    <g data-name="그룹 477">
        <path data-name="패스 124" d="M14.457 12.713v2.174a10.029 10.029 0 0 1-3.146 1.356q-2.2.512-2.671.639a12.192 12.192 0 0 1-1.869 3.351 5.42 5.42 0 0 1-4.269 2.4 2.4 2.4 0 0 1-1.8-.716 2.56 2.56 0 0 1-.7-1.867 2.8 2.8 0 0 1 1.6-2.558 26.437 26.437 0 0 1 5.34-1.786q.949-2.583 1.5-4.706a7.118 7.118 0 0 1-3.72-1.3 4.312 4.312 0 0 1-1.6-3.607 6.752 6.752 0 0 1 1.423-4.246A4.133 4.133 0 0 1 7.866.005a2.931 2.931 0 0 1 2.547 1.407 6.729 6.729 0 0 1 .949 3.811 23.12 23.12 0 0 1-.5 4.3l1.074-.077q.225 0 .225.153 0 1.023-.362 1.279a2.47 2.47 0 0 1-1.336.256q-.2.742-.674 2.2t-.574 1.791a16.876 16.876 0 0 0 2.422-.767 9.156 9.156 0 0 0 2.82-1.645zm-8.314 4.911a16.552 16.552 0 0 0-3.72 1.253 1.35 1.35 0 0 0-.8 1.177.983.983 0 0 0 .275.716.935.935 0 0 0 .7.281 2.576 2.576 0 0 0 1.723-.639 7.947 7.947 0 0 0 1.822-2.788zm2.621-8.258a17.893 17.893 0 0 0 .649-4.553 4.426 4.426 0 0 0-.449-2.174 1.4 1.4 0 0 0-1.273-.793 2.244 2.244 0 0 0-1.848 1.22 5.043 5.043 0 0 0-.8 2.814 3.054 3.054 0 0 0 .986 2.456 4.869 4.869 0 0 0 2.735 1.03zm17.177 3.351v2.174a13.778 13.778 0 0 1-2.609 2.046 4.523 4.523 0 0 1-2.21.716 1 1 0 0 1-.961-.742 7.788 7.788 0 0 1-.29-2.535 11.086 11.086 0 0 1-2.384 2.379 4.053 4.053 0 0 1-2.26.9q-1.423 0-1.423-3.453a12.875 12.875 0 0 1 .35-2.878 35 35 0 0 1 1.248-3.977h2.047a26.955 26.955 0 0 0-1.623 6.855 3.642 3.642 0 0 0 .112 1.1.413.413 0 0 0 .412.307 2.976 2.976 0 0 0 1.5-.9 13.747 13.747 0 0 0 2.347-2.788q.5-2.3 1.223-4.579h2.051l-.949 3.5q-.3 1.049-.5 2.136a9.92 9.92 0 0 0-.2 1.624q0 1 .424 1a2.732 2.732 0 0 0 1.423-.729 22.315 22.315 0 0 0 2.273-2.16zm-.05 2.251v-2.123a38.131 38.131 0 0 0 5.393-7.75h1.748l-1.323 5.7.3-.409a11.517 11.517 0 0 1 2.062-2.392 2.952 2.952 0 0 1 1.86-.7 1.9 1.9 0 0 1 1.585.806 3.4 3.4 0 0 1 .612 2.11 8.667 8.667 0 0 1-2.2 5.806 3.311 3.311 0 0 0 1.973-.75 18.431 18.431 0 0 0 1.623-1.5q.225-.256.524-.639.1-.128.3-.409v2.174q-1.673 1.586-1.922 1.765a3.927 3.927 0 0 1-2.347.844 4.785 4.785 0 0 1-1.473-.307 2.989 2.989 0 0 1-1.623.409q-1.273 0-1.273-.793a2.729 2.729 0 0 1 .237-1.138.792.792 0 0 1 .761-.524 2.64 2.64 0 0 1 .749.128q.125.026.8.281a5.4 5.4 0 0 0 1.273-2.021 8.435 8.435 0 0 0 .574-3.018q0-1.611-.749-1.611a2.25 2.25 0 0 0-1.423.831 13.8 13.8 0 0 0-1.773 2.34 19.541 19.541 0 0 0-2.035 5.039q-.811 3.018-1.311 4.809a.865.865 0 0 1-.949.665q-1.3 0-1.3-.972v-.23a2.3 2.3 0 0 1 .15-.716q0-.026.424-1.1 1.024-2.532 1.873-5.231t1.523-5.563a35.021 35.021 0 0 1-2.284 3.607 18.3 18.3 0 0 1-2.358 2.58zm20.773 2.068.375-1.842-.375.409a10.234 10.234 0 0 1-1.81 1.586 2.706 2.706 0 0 1-1.436.46 2.357 2.357 0 0 1-1.972-1.049 4.361 4.361 0 0 1-.774-2.66 7.254 7.254 0 0 1 1.575-4.574 4.525 4.525 0 0 1 3.6-2.021 2.009 2.009 0 0 1 1.137.307 7.6 7.6 0 0 1 1.312 1.306l.35-1.611h2.04l-1.675 8.308a9.535 9.535 0 0 0 .949-.844q1.873-1.791 2.2-2.1v2.174l-3.57 2.942a10.241 10.241 0 0 1-1.161 3.683 2.32 2.32 0 0 1-2.06 1.074 2.533 2.533 0 0 1-1.735-.627 1.836 1.836 0 0 1-.712-1.394 2.137 2.137 0 0 1 .674-1.458 15.783 15.783 0 0 1 2.372-1.663zm-.4 1.918a7.256 7.256 0 0 0-1.136.78 1.061 1.061 0 0 0-.462.729.888.888 0 0 0 .15.537.548.548 0 0 0 .474.2q.225 0 .462-.5a9.125 9.125 0 0 0 .513-1.746zm1.3-6.241.447-2.093a11.143 11.143 0 0 0-.8-1 1.732 1.732 0 0 0-1.229-.693 2.618 2.618 0 0 0-1.931 1.049 5.164 5.164 0 0 0-1.18 3.555 3.674 3.674 0 0 0 .35 1.714 1.043 1.043 0 0 0 .924.665 2.45 2.45 0 0 0 1.423-.793 9.531 9.531 0 0 0 1.3-1.407l.424-.537a1.49 1.49 0 0 0 .25-.384.2.2 0 0 1 .022-.076zm10.907 4.323.375-1.842-.375.409a10.233 10.233 0 0 1-1.81 1.586 2.706 2.706 0 0 1-1.436.46 2.357 2.357 0 0 1-1.972-1.049 4.361 4.361 0 0 1-.774-2.66 7.254 7.254 0 0 1 1.577-4.574 4.525 4.525 0 0 1 3.6-2.021 2.009 2.009 0 0 1 1.137.307 7.6 7.6 0 0 1 1.312 1.306l.35-1.611h2.04l-1.674 8.308a9.535 9.535 0 0 0 .949-.844q1.873-1.791 2.2-2.1v2.174l-3.57 2.942a10.24 10.24 0 0 1-1.161 3.683 2.319 2.319 0 0 1-2.068 1.076 2.533 2.533 0 0 1-1.735-.627 1.836 1.836 0 0 1-.712-1.394 2.137 2.137 0 0 1 .674-1.458 15.782 15.782 0 0 1 2.373-1.662zm-.4 1.918a7.255 7.255 0 0 0-1.136.78 1.061 1.061 0 0 0-.462.729.888.888 0 0 0 .15.537.548.548 0 0 0 .474.2q.225 0 .462-.5a9.125 9.125 0 0 0 .512-1.746zm1.3-6.241.447-2.093a11.143 11.143 0 0 0-.8-1 1.732 1.732 0 0 0-1.229-.693 2.618 2.618 0 0 0-1.931 1.049 5.164 5.164 0 0 0-1.179 3.555 3.674 3.674 0 0 0 .35 1.714 1.043 1.043 0 0 0 .924.665 2.45 2.45 0 0 0 1.423-.793 9.531 9.531 0 0 0 1.3-1.407l.424-.537a1.49 1.49 0 0 0 .25-.384.2.2 0 0 1 .021-.076zm11.334 0v2.174a11.722 11.722 0 0 1-2.322 1.816 5.5 5.5 0 0 1-2.7.972q-.924 0-1.223-1.33a10.512 10.512 0 0 1-.15-2.1 13.947 13.947 0 0 1 .424-3.172 29.067 29.067 0 0 1 1.173-3.734h2.1l-.25.767q-.774 2.379-1.1 3.811a11.459 11.459 0 0 0-.325 2.481q0 1.228.474 1.228.624 0 2.4-1.535.753-.662 1.502-1.378zM68.261 1.791q1.223 0 1.223.716a3.561 3.561 0 0 1-.2 1.036 2.291 2.291 0 0 1-.462.9 1.377 1.377 0 0 1-.986.269q-.949 0-.949-.639a3.189 3.189 0 0 1 .387-1.586 1.133 1.133 0 0 1 .987-.696zm4.324 5.551h2.093q-.35.946-.587 1.688t-.462 1.611a24.078 24.078 0 0 1 2.983-2.575 3.578 3.578 0 0 1 1.91-.729 1.306 1.306 0 0 1 1.1.665 2.9 2.9 0 0 1 .449 1.664 14.923 14.923 0 0 1-.849 3.376 6.879 6.879 0 0 0-.4 2.046q0 .742.4.742a3.7 3.7 0 0 0 1.4-.767 14.261 14.261 0 0 0 2.522-2.353v2.174l-.524.46a14.987 14.987 0 0 1-2.359 1.791 3.594 3.594 0 0 1-1.76.512 1.464 1.464 0 0 1-1.261-.652 2.977 2.977 0 0 1-.462-1.752 6.5 6.5 0 0 1 .374-1.944 15.914 15.914 0 0 0 .824-3.146q0-.767-.375-.767-.624 0-4.145 3.428l-.275.256-.05.806q-.025.397-.025.524v2.558l.075.588h-2a11.735 11.735 0 0 1-.1-1.458v-2.2a21.245 21.245 0 0 1 1.503-6.547zm16.923 9.694.375-1.842-.375.409a10.234 10.234 0 0 1-1.81 1.586 2.706 2.706 0 0 1-1.436.46A2.357 2.357 0 0 1 84.29 16.6a4.361 4.361 0 0 1-.774-2.66 7.254 7.254 0 0 1 1.574-4.574 4.525 4.525 0 0 1 3.6-2.021 2.009 2.009 0 0 1 1.137.307 7.6 7.6 0 0 1 1.312 1.306l.35-1.611h2.04l-1.673 8.313a9.536 9.536 0 0 0 .949-.844q1.873-1.791 2.2-2.1v2.174l-3.57 2.942a10.241 10.241 0 0 1-1.164 3.68 2.319 2.319 0 0 1-2.06 1.074 2.533 2.533 0 0 1-1.735-.627 1.836 1.836 0 0 1-.712-1.394 2.137 2.137 0 0 1 .674-1.458 15.782 15.782 0 0 1 2.372-1.663zm-.4 1.918a7.255 7.255 0 0 0-1.136.78 1.062 1.062 0 0 0-.462.729.888.888 0 0 0 .15.537.548.548 0 0 0 .474.2q.225 0 .462-.5a9.126 9.126 0 0 0 .512-1.746zm1.3-6.241.447-2.093a11.14 11.14 0 0 0-.8-1 1.732 1.732 0 0 0-1.229-.693 2.618 2.618 0 0 0-1.931 1.049 5.164 5.164 0 0 0-1.179 3.555 3.674 3.674 0 0 0 .35 1.714 1.043 1.043 0 0 0 .924.665 2.45 2.45 0 0 0 1.423-.793 9.531 9.531 0 0 0 1.3-1.407l.424-.537a1.491 1.491 0 0 0 .25-.384.2.2 0 0 1 .021-.076z"/>
        <path data-name="패스 125" d="M16.745 33.059a.122.122 0 0 1-.077.063q-.046.011-.128-.053-.246-.19-.522-.439t-.543-.529q-.266-.28-.522-.582t-.471-.6a10.317 10.317 0 0 1-1.168 1.275 15.405 15.405 0 0 1-1.5 1.211.445.445 0 0 1-.1.048.068.068 0 0 1-.082-.026l-.246-.328a.137.137 0 0 1-.031-.111.139.139 0 0 1 .051-.09 11.931 11.931 0 0 0 2.555-2.422 7.542 7.542 0 0 0 1.279-2.558.313.313 0 0 0 .005-.217q-.036-.069-.179-.069h-3.1q-.123 0-.123-.138v-.37q0-.127.143-.127h3.354q.533 0 .676.19t0 .677a9.591 9.591 0 0 1-1.127 2.486q.236.338.5.666t.533.619q.266.291.533.529a4.728 4.728 0 0 0 .5.4.122.122 0 0 1 .051.1.158.158 0 0 1-.031.1zm2.12 2.75a.129.129 0 0 1-.143.148h-.42a.129.129 0 0 1-.143-.148v-9.456a.129.129 0 0 1 .143-.148h.42a.129.129 0 0 1 .143.148zm2.929-9.181a.1.1 0 0 1 .051-.1.193.193 0 0 1 .1-.032h5.418a1.2 1.2 0 0 1 .394.053.509.509 0 0 1 .23.153.62.62 0 0 1 .118.259 1.751 1.751 0 0 1 .036.381 10.434 10.434 0 0 1-.1 1.682q-.118.857-.323 1.851h1.69a.174.174 0 0 1 .1.037.118.118 0 0 1 .051.1v.36a.122.122 0 0 1-.051.1.161.161 0 0 1-.1.042h-4.019v4.221a.18.18 0 0 1-.036.111.115.115 0 0 1-.1.048h-.44a.12.12 0 0 1-.092-.048.165.165 0 0 1-.041-.111v-4.221h-3.971a.154.154 0 0 1-.108-.042.127.127 0 0 1-.046-.1v-.36a.122.122 0 0 1 .046-.1.167.167 0 0 1 .108-.037h6.319q.1-.413.195-.9t.149-.973q.056-.487.077-.92a6.45 6.45 0 0 0 0-.73.377.377 0 0 0-.056-.185.276.276 0 0 0-.179-.037h-5.266a.174.174 0 0 1-.1-.037.109.109 0 0 1-.051-.09zm17.246 4.083a.174.174 0 0 1 .1.037.118.118 0 0 1 .051.1v.36a.122.122 0 0 1-.051.1.161.161 0 0 1-.1.042h-8.7a.154.154 0 0 1-.108-.042.127.127 0 0 1-.046-.1v-.36a.122.122 0 0 1 .046-.1.167.167 0 0 1 .108-.037zm-1.065 5.056a.112.112 0 0 1-.046.09.142.142 0 0 1-.087.037h-5.457a.8.8 0 0 1-.63-.185 1.022 1.022 0 0 1-.149-.629v-.624a.771.771 0 0 1 .179-.6 1 1 0 0 1 .64-.153h4.415q.143 0 .179-.042a.356.356 0 0 0 .036-.2v-.4a.356.356 0 0 0-.036-.2q-.036-.042-.179-.042h-5.111a.169.169 0 0 1-.1-.032.1.1 0 0 1-.046-.085v-.37a.1.1 0 0 1 .046-.085.169.169 0 0 1 .1-.032h5.211a1.758 1.758 0 0 1 .4.037.545.545 0 0 1 .246.122.453.453 0 0 1 .128.238 1.678 1.678 0 0 1 .036.376v.571a.771.771 0 0 1-.179.6 1 1 0 0 1-.64.153h-4.413q-.143 0-.179.042a.356.356 0 0 0-.036.2v.487a.321.321 0 0 0 .041.2.249.249 0 0 0 .184.048h5.305a.169.169 0 0 1 .1.032.1.1 0 0 1 .046.085zm-.082-6.05a.112.112 0 0 1-.046.09.142.142 0 0 1-.087.037h-5.334a.8.8 0 0 1-.63-.185 1.022 1.022 0 0 1-.149-.629v-.571a.771.771 0 0 1 .179-.6 1 1 0 0 1 .64-.153h4.343a.276.276 0 0 0 .179-.037.354.354 0 0 0 .036-.206v-.434a.356.356 0 0 0-.036-.2q-.036-.042-.179-.042h-5.018a.169.169 0 0 1-.1-.032.1.1 0 0 1-.046-.085v-.381a.1.1 0 0 1 .046-.085.169.169 0 0 1 .1-.032h5.131a1.758 1.758 0 0 1 .4.037.545.545 0 0 1 .246.122.453.453 0 0 1 .128.238 1.678 1.678 0 0 1 .036.376v.614a.77.77 0 0 1-.179.6 1.032 1.032 0 0 1-.64.148h-4.354q-.143 0-.179.042a.356.356 0 0 0-.036.2v.444a.321.321 0 0 0 .041.2.249.249 0 0 0 .184.048h5.183a.169.169 0 0 1 .1.032.1.1 0 0 1 .046.085zm10.478-1.015a1.7 1.7 0 0 1-.184.777 2.018 2.018 0 0 1-.512.64 2.559 2.559 0 0 1-.778.439 2.856 2.856 0 0 1-.983.164 2.821 2.821 0 0 1-.963-.159 2.379 2.379 0 0 1-.763-.439 2.111 2.111 0 0 1-.507-.645 1.7 1.7 0 0 1-.184-.777 1.858 1.858 0 0 1 .184-.83 1.956 1.956 0 0 1 .507-.645 2.263 2.263 0 0 1 .763-.413 3.106 3.106 0 0 1 .963-.143 2.952 2.952 0 0 1 .937.148 2.579 2.579 0 0 1 .784.413 1.992 1.992 0 0 1 .538.64 1.74 1.74 0 0 1 .2.829zm-.717-.011a1.2 1.2 0 0 0-.138-.582 1.281 1.281 0 0 0-.379-.428 1.757 1.757 0 0 0-.558-.264 2.432 2.432 0 0 0-.666-.09 2.276 2.276 0 0 0-.676.1 1.729 1.729 0 0 0-.538.27 1.221 1.221 0 0 0-.358.428 1.251 1.251 0 0 0-.128.571 1.269 1.269 0 0 0 .123.561 1.292 1.292 0 0 0 .348.439 1.617 1.617 0 0 0 .538.286 2.249 2.249 0 0 0 .691.1 2.092 2.092 0 0 0 .666-.106 1.884 1.884 0 0 0 .558-.291 1.388 1.388 0 0 0 .379-.439 1.132 1.132 0 0 0 .14-.555zm2.96 7.119a.129.129 0 0 1-.143.148h-.42a.129.129 0 0 1-.143-.148v-9.457a.129.129 0 0 1 .143-.148h.42a.129.129 0 0 1 .143.148zm-1.463-4.267a.135.135 0 0 1 .1.016.109.109 0 0 1 .056.069l.051.36q.01.148-.123.159-.666.106-1.4.185t-1.475.132v3.152a.18.18 0 0 1-.036.111.115.115 0 0 1-.1.048h-.44a.12.12 0 0 1-.092-.048.165.165 0 0 1-.041-.111v-3.12q-.328.021-.707.032l-.743.021q-.364.011-.691.016t-.543-.005a.154.154 0 0 1-.108-.042.127.127 0 0 1-.046-.1v-.36a.122.122 0 0 1 .046-.1.167.167 0 0 1 .108-.037q.3 0 .712-.005t.85-.016q.435-.011.84-.026l.681-.026q.3-.011.691-.042t.819-.074q.425-.042.84-.09t.751-.099zm8.429-.656a1.629 1.629 0 0 1-.164.719 1.912 1.912 0 0 1-.446.592 2.038 2.038 0 0 1-.671.4 2.42 2.42 0 0 1-.84.143 2.42 2.42 0 0 1-.84-.143 2.038 2.038 0 0 1-.671-.4 1.845 1.845 0 0 1-.44-.592 1.673 1.673 0 0 1-.159-.719 1.639 1.639 0 0 1 .159-.714 1.8 1.8 0 0 1 .44-.582 2.089 2.089 0 0 1 .671-.391 2.42 2.42 0 0 1 .84-.143 2.42 2.42 0 0 1 .84.143 2.089 2.089 0 0 1 .671.391 1.87 1.87 0 0 1 .446.582 1.6 1.6 0 0 1 .165.718zm2.3 2.687a.129.129 0 0 1-.143.148h-.42a.129.129 0 0 1-.143-.148v-7.221a.129.129 0 0 1 .143-.148h.42a.129.129 0 0 1 .143.148v3.5h1.413a.167.167 0 0 1 .108.037.122.122 0 0 1 .046.1v.36a.127.127 0 0 1-.046.1.154.154 0 0 1-.108.042h-1.408zm-3-2.687a1.045 1.045 0 0 0-.108-.471 1.155 1.155 0 0 0-.3-.376 1.407 1.407 0 0 0-.451-.249 1.736 1.736 0 0 0-.568-.09 1.69 1.69 0 0 0-.563.09 1.484 1.484 0 0 0-.451.249 1.127 1.127 0 0 0-.3.376 1.045 1.045 0 0 0-.108.471 1.078 1.078 0 0 0 .108.476 1.111 1.111 0 0 0 .3.381 1.575 1.575 0 0 0 .451.254 1.6 1.6 0 0 0 .563.1 1.648 1.648 0 0 0 .568-.1 1.488 1.488 0 0 0 .451-.254 1.138 1.138 0 0 0 .3-.381 1.078 1.078 0 0 0 .112-.472zm3.462 4.781a.1.1 0 0 1-.051.1.193.193 0 0 1-.1.032h-5.284a.8.8 0 0 1-.63-.185 1 1 0 0 1-.149-.619v-1.46a.129.129 0 0 1 .143-.148h.42a.129.129 0 0 1 .143.148v1.417q0 .148.046.18a.375.375 0 0 0 .189.032h5.121a.174.174 0 0 1 .1.037.109.109 0 0 1 .051.09zm-1.902-7.253q0 .138-.154.138h-5.652a.142.142 0 0 1-.1-.042.138.138 0 0 1-.046-.106v-.338a.138.138 0 0 1 .046-.106.142.142 0 0 1 .1-.042h5.654q.154 0 .154.138zm-1.5-1.439q0 .138-.154.138h-2.8a.169.169 0 0 1-.1-.032.108.108 0 0 1-.046-.1v-.37a.146.146 0 0 1 .041-.106.126.126 0 0 1 .092-.042h2.817q.154 0 .154.148zm15.711 4.051a.1.1 0 0 1-.051.1.193.193 0 0 1-.1.032h-2.86v2.5h4.025a.174.174 0 0 1 .1.037.118.118 0 0 1 .051.1v.36a.122.122 0 0 1-.051.1.161.161 0 0 1-.1.042h-8.71a.154.154 0 0 1-.108-.042.127.127 0 0 1-.046-.1v-.36a.122.122 0 0 1 .046-.1.167.167 0 0 1 .108-.037h3.974v-2.5h-1.926a.747.747 0 0 1-.63-.206 1.1 1.1 0 0 1-.149-.64v-3.332a.129.129 0 0 1 .143-.148h.42a.129.129 0 0 1 .143.148v3.321q0 .148.046.185a.329.329 0 0 0 .189.037h5.336a.174.174 0 0 1 .1.037.109.109 0 0 1 .051.09zm3.38.6a.844.844 0 0 1-.62-.19.949.949 0 0 1-.159-.624v-1.29a.771.771 0 0 1 .179-.6 1 1 0 0 1 .64-.153h2.018a.272.272 0 0 0 .184-.042.319.319 0 0 0 .041-.2v-.994a.356.356 0 0 0-.036-.2q-.036-.042-.179-.042h-2.677q-.123 0-.123-.138v-.37a.11.11 0 0 1 .123-.127h2.8a1.758 1.758 0 0 1 .4.037.545.545 0 0 1 .246.122.453.453 0 0 1 .128.238 1.678 1.678 0 0 1 .036.376v1.227a.771.771 0 0 1-.179.6 1 1 0 0 1-.64.153H76.18q-.143 0-.179.042a.356.356 0 0 0-.036.2v1.111q0 .243.225.243.481 0 .917-.011t.85-.048q.415-.037.83-.1t.865-.143a.219.219 0 0 1 .138 0 .164.164 0 0 1 .056.106l.061.338q.02.1-.015.127a.3.3 0 0 1-.128.053 15.924 15.924 0 0 1-1.741.243 19.48 19.48 0 0 1-1.983.06zm5.623-3.871v-1.403a.129.129 0 0 1 .143-.148h.42a.129.129 0 0 1 .143.148v5.659a.129.129 0 0 1-.143.148h-.42a.129.129 0 0 1-.143-.148v-1.9h-1.787q-.133 0-.133-.127v-.37q0-.127.133-.127h1.793v-1.1h-1.793q-.133 0-.133-.127v-.37q0-.127.133-.127zm-5.264 5.1a.1.1 0 0 1 .051-.1.193.193 0 0 1 .1-.032h5.039a.8.8 0 0 1 .63.185 1 1 0 0 1 .149.619v2.317a.129.129 0 0 1-.143.148h-.42a.129.129 0 0 1-.143-.148v-2.264q0-.148-.046-.185a.329.329 0 0 0-.189-.037h-4.869a.174.174 0 0 1-.1-.037.109.109 0 0 1-.051-.09z"/>
    </g>
</svg>
