<svg xmlns="http://www.w3.org/2000/svg" width="74.273" height="74.273" viewBox="0 0 74.273 74.273">
    <path d="M37.137 52.61a12.379 12.379 0 1 1 12.379-12.379A12.379 12.379 0 0 1 37.137 52.61zm18.568 12.379a9.284 9.284 0 0 0-9.284-9.284H27.853a9.284 9.284 0 0 0-9.284 9.284v9.284h37.136zm0-40.231a12.379 12.379 0 1 1 12.379-12.379 12.379 12.379 0 0 1-12.379 12.379zm-37.137 0a12.379 12.379 0 1 1 12.379-12.379 12.379 12.379 0 0 1-12.379 12.379zm0 15.474a18.469 18.469 0 0 1 4.757-12.379H9.284A9.284 9.284 0 0 0 0 37.137v9.284h19.648a18.479 18.479 0 0 1-1.08-6.19zm36.057 6.189h19.648v-9.284a9.284 9.284 0 0 0-9.284-9.284H50.948a18.42 18.42 0 0 1 3.677 18.568z" style="fill:#747474"/>
</svg>
