<svg xmlns="http://www.w3.org/2000/svg" width="74.27" height="74.225" viewBox="0 0 74.27 74.225">
    <path d="M71.55 28.02 48.077 4.544a15.5 15.5 0 0 0-21.885 0L2.72 28.02A9.216 9.216 0 0 0 0 34.584v30.379a9.284 9.284 0 0 0 9.284 9.284h55.7a9.284 9.284 0 0 0 9.284-9.284V34.584a9.216 9.216 0 0 0-2.718-6.564zM46.419 68.058H27.851V55.884a9.284 9.284 0 0 1 18.567 0zm21.662-3.095a3.1 3.1 0 0 1-3.095 3.095H52.608V55.884a15.473 15.473 0 1 0-30.946 0v12.174H9.284a3.1 3.1 0 0 1-3.095-3.095V34.584A3.119 3.119 0 0 1 7.1 32.4L30.568 8.93a9.308 9.308 0 0 1 13.133 0L67.174 32.4a3.119 3.119 0 0 1 .907 2.179z" transform="translate(0 -.021)" style="fill:#747474"/>
</svg>
