<svg xmlns="http://www.w3.org/2000/svg" width="210.112" height="140.444" viewBox="0 0 210.112 140.444">
    <path d="M124.889 73.148a8.778 8.778 0 0 1-8.778 8.778H99.316a20.575 20.575 0 0 1-17.556-9.948l-7.169-11.9-10.474 25.529 15.3 8.7a20.522 20.522 0 0 1 10.364 17.831v19.528a8.778 8.778 0 0 1-17.556 0v-19.527a2.926 2.926 0 0 0-1.475-2.54L46.86 96.005a20.546 20.546 0 0 1-8.35-25.291l7.379-18.047H35.566a2.926 2.926 0 0 0-2.616 1.621l-8.467 16.935A8.78 8.78 0 1 1 8.776 63.37l8.468-16.935a20.382 20.382 0 0 1 18.322-11.324h32.911a20.575 20.575 0 0 1 17.556 9.948L96.8 62.954a2.926 2.926 0 0 0 2.516 1.416h16.795a8.778 8.778 0 0 1 8.778 8.778zM37.445 98.6a8.778 8.778 0 0 0-11.411 4.9 2.926 2.926 0 0 1-2.715 1.837H10.778a8.778 8.778 0 1 0 0 17.556h12.54a20.388 20.388 0 0 0 19.018-12.874A8.778 8.778 0 0 0 37.445 98.6zm37.7-69.344a14.63 14.63 0 1 0-14.63-14.63 14.63 14.63 0 0 0 14.63 14.63z" transform="translate(85.223)" style="fill:#fff"/>
    <g data-name="그룹 27">
        <path data-name="선 1" transform="translate(21.186 33.872)" style="fill:none;stroke:#fff;stroke-linecap:round;stroke-width:9px" d="M0 0h47.175"/>
        <path data-name="선 2" transform="translate(4.5 72.226)" style="fill:none;stroke:#fff;stroke-linecap:round;stroke-width:9px" d="M0 0h47.175"/>
        <path data-name="선 3" transform="translate(21.186 110.581)" style="fill:none;stroke:#fff;stroke-linecap:round;stroke-width:9px" d="M0 0h47.175"/>
    </g>
</svg>
