<svg xmlns="http://www.w3.org/2000/svg" width="11.348" height="11.348" viewBox="0 0 11.348 11.348">
    <g data-name="그룹 243">
        <g data-name="패스 17" style="fill:#fff">
            <path d="M5.674 11.098A5.43 5.43 0 0 1 .25 5.674 5.43 5.43 0 0 1 5.674.25a5.43 5.43 0 0 1 5.424 5.424 5.43 5.43 0 0 1-5.424 5.424z" style="stroke:none"/>
            <path d="M5.674.5A5.18 5.18 0 0 0 .5 5.674a5.18 5.18 0 0 0 5.174 5.174 5.18 5.18 0 0 0 5.174-5.174A5.18 5.18 0 0 0 5.674.5m0-.5a5.674 5.674 0 1 1 0 11.348A5.674 5.674 0 0 1 5.674 0z" style="fill:#707070;stroke:none"/>
        </g>
        <circle data-name="타원 41" cx="3.084" cy="3.084" r="3.084" transform="translate(2.59 2.59)" style="fill:#ddd"/>
    </g>
</svg>
