<svg xmlns="http://www.w3.org/2000/svg" width="238.094" height="154.951" viewBox="0 0 238.094 154.951">
    <g data-name="그룹 339">
        <path data-name="빼기 5" d="M46.042 154.732v-7.858l27.693-60.236a15.967 15.967 0 0 1 28.789 0l27.694 59.952v7.859zM88.13 90.3a2.859 2.859 0 0 0-2.63 1.728l-23.012 49.81h51.282l-23.012-49.81A2.859 2.859 0 0 0 88.13 90.3zm-55.038 64.432H1.724A56.048 56.048 0 0 0 14.6 141.839h18.492v12.893zM16.329 87.418a54.378 54.378 0 0 0-9.115-10.974l15.764-34.271a17.263 17.263 0 0 1 31.144 0l14.057 30.4a28.821 28.821 0 0 0-6.209 8.658L59.95 85.6 42.364 47.563a4.2 4.2 0 0 0-7.621 0L16.329 87.417zm87.988-35.838a25.915 25.915 0 0 1-23.865-15.751A25.693 25.693 0 0 1 86 7.556a25.946 25.946 0 0 1 42.179 8.2 25.695 25.695 0 0 1-5.551 28.273 25.875 25.875 0 0 1-18.314 7.553zm0-38.683a12.922 12.922 0 1 0 9.157 3.776 12.894 12.894 0 0 0-9.157-3.773z" transform="translate(107.877 -.003)" style="fill:#00b786"/>
        <path d="M115.588 117.774a4.849 4.849 0 0 1-4.849 4.849h-9.278a11.366 11.366 0 0 1-9.7-5.5l-3.961-6.571-5.787 14.1 8.45 4.807a11.337 11.337 0 0 1 5.725 9.85v10.793a4.85 4.85 0 0 1-9.7 0v-10.788a1.616 1.616 0 0 0-.815-1.4l-13.2-7.51a11.35 11.35 0 0 1-4.613-13.972l4.076-9.97h-5.7a1.616 1.616 0 0 0-1.445.9l-4.671 9.349a4.85 4.85 0 1 1-8.677-4.338l4.678-9.356a11.26 11.26 0 0 1 10.122-6.252h18.181a11.366 11.366 0 0 1 9.7 5.5l5.948 9.886a1.616 1.616 0 0 0 1.39.782h9.278a4.849 4.849 0 0 1 4.849 4.849zm-48.307 14.063a4.849 4.849 0 0 0-6.3 2.7 1.616 1.616 0 0 1-1.5 1.015h-6.932a4.85 4.85 0 0 0 0 9.7h6.928a11.263 11.263 0 0 0 10.506-7.112 4.849 4.849 0 0 0-2.702-6.303zm20.828-38.308a8.082 8.082 0 1 0-8.082-8.082 8.082 8.082 0 0 0 8.082 8.082z"/>
        <g data-name="그룹 27">
            <path data-name="선 1" transform="translate(11.219 96.077)" style="fill:none;stroke:#000;stroke-linecap:round;stroke-width:4px" d="M0 0h26.061"/>
            <path data-name="선 2" transform="translate(2.001 117.265)" style="fill:none;stroke:#000;stroke-linecap:round;stroke-width:4px" d="M0 0h26.061"/>
            <path data-name="선 3" transform="translate(11.219 138.453)" style="fill:none;stroke:#000;stroke-linecap:round;stroke-width:4px" d="M0 0h26.061"/>
        </g>
    </g>
</svg>
