<svg xmlns="http://www.w3.org/2000/svg" width="132.538" height="138.13" viewBox="0 0 132.538 138.13">
    <path data-name="빼기 1" d="M71.736 138.13H30.715a19.384 19.384 0 0 1-7.173-1.357 18.482 18.482 0 0 1-5.858-3.7 17.193 17.193 0 0 1-3.95-5.488 16.227 16.227 0 0 1-1.448-6.721V34.533H0V23.022h30.715V11.511a10.819 10.819 0 0 1 .965-4.481 11.462 11.462 0 0 1 2.633-3.659A12.321 12.321 0 0 1 38.218.9 12.922 12.922 0 0 1 43 0h36.858a12.922 12.922 0 0 1 4.782.9 12.322 12.322 0 0 1 3.905 2.467 11.462 11.462 0 0 1 2.634 3.663 10.82 10.82 0 0 1 .965 4.481v11.511h30.715v11.511h-12.286V77.77a34.692 34.692 0 0 0-12.286-.356V34.533H24.572v86.331a5.541 5.541 0 0 0 1.8 4.069 6.317 6.317 0 0 0 4.344 1.686h36.633a41.817 41.817 0 0 0 4.386 11.51zM43 11.511v11.511h36.858V11.511zM65.842 106.2h-8.825V60.277h8.826zm-17.991 0h-8.826V60.277h8.826zm27.157-14.805V60.277h8.826v22.815a38.291 38.291 0 0 0-8.826 8.3z" style="fill:#4a4a4a"/>
    <path data-name="패스 13" d="m42.359 19.638-3.914-5.93-3.979 2.624 3.9 5.944a2.624 2.624 0 0 1 .134 2.753 2.745 2.745 0 0 1-2.462 1.45H17.092l3.525-3.518-3.368-3.377-6.018 6a4.792 4.792 0 0 0 .024 6.781l6.008 5.889 3.339-3.4-3.678-3.614h19.128a7.547 7.547 0 0 0 6.662-3.955 7.339 7.339 0 0 0-.355-7.647z" transform="translate(88.918 99.873)" style="fill:#4a4a4a"/>
    <path data-name="패스 14" d="M17.173 5.785a2.862 2.862 0 0 1 2.371 1.245l10.192 15.42-5.283-1.042-.921 4.68 8.635 1.7a4.77 4.77 0 0 0 5.615-3.8l1.632-8.739-4.692-.875-1.014 5.436L23.525 4.4a7.573 7.573 0 0 0-12.728.16L7.852 9.255l4.038 2.538 2.953-4.7a2.733 2.733 0 0 1 2.33-1.308z" transform="translate(86.167 82.287)" style="fill:#4a4a4a"/>
    <path data-name="패스 15" d="m15.4 15.1 1.026 5.51 4.692-.866-1.631-8.749a4.77 4.77 0 0 0-5.61-3.8l-8.63 1.7.923 4.68 5.209-1.028-10.24 16.282a7.363 7.363 0 0 0-.186 7.556 7.463 7.463 0 0 0 6.609 3.869H16.7v-4.77H7.563a2.753 2.753 0 0 1-2.443-1.417 2.624 2.624 0 0 1 .064-2.71z" transform="translate(75.291 90.72)" style="fill:#4a4a4a"/>
</svg>
