<svg xmlns="http://www.w3.org/2000/svg" width="725" height="725" viewBox="0 0 725 725">
    <g data-name="그룹 649">
        <path data-name="사각형 237" style="fill:#fff" d="M0 0h725v725H0z"/>
        <g data-name="그룹 470" style="isolation:isolate">
            <g data-name="그룹 462">
                <path data-name="패스 111" d="M-3.24 67.689S1.726 60.5 3.382 43.583 3.382 0 3.382 0" transform="translate(358.815 368.659)" style="fill:none;stroke:#000;stroke-linecap:round;stroke-width:2.6px"/>
                <g data-name="패스 109">
                    <path data-name="패스 120" d="M33.783 117.275C15.155 117.275 0 96.787 0 71.6c0-10.428 6.151-26.559 17.792-46.645Q25.256 12.146 33.781 0 42.3 12.134 49.774 24.955C61.414 45.041 67.566 61.172 67.566 71.6c0 25.181-15.155 45.672-33.785 45.672z" transform="rotate(73.02 33.066 458.095)" style="fill:#00b786"/>
                    <path data-name="패스 121" d="M467.162 326.294q-12.284-3.873-24.825-6.826c-22.2-5.176-38.987-6.368-48.546-3.449a56.653 56.653 0 0 0-15.711 7.532 46.117 46.117 0 0 0-11.165 10.728c-5.749 7.904-7.61 16.507-5.254 24.226s8.715 13.816 17.892 17.161a46.155 46.155 0 0 0 15.256 2.661 56.653 56.653 0 0 0 17.24-2.53c9.543-2.914 22.778-13.256 38.274-29.908q8.785-9.479 16.841-19.602m8.4-2.565s-36.58 49.145-62.04 56.92-50.847-1.473-56.704-20.655 10.035-41.032 35.494-48.806 83.247 12.548 83.247 12.548z"/>
                </g>
                <g data-name="패스 110">
                    <path data-name="패스 122" d="M30.911 113.2c-8.093 0-15.762-4.48-21.59-12.615a48.08 48.08 0 0 1-6.8-14.1A60.089 60.089 0 0 1 0 69.052c0-10.107 5.665-25.731 16.384-45.183Q23.158 11.643 30.911 0q7.747 11.633 14.526 23.869c10.717 19.452 16.384 35.076 16.384 45.183A60.079 60.079 0 0 1 59.3 86.488a48.08 48.08 0 0 1-6.8 14.1C46.67 108.72 39 113.2 30.911 113.2z" transform="rotate(-80 347.9 44.285)" style="fill:#00b786"/>
                    <path data-name="패스 123" d="M253.769 349.565q8.761 8.176 18.08 15.719c16.945 13.642 30.94 21.745 40.466 23.424a57.566 57.566 0 0 0 16.865.527 45.54 45.54 0 0 0 14.272-4.02c8.27-3.964 13.516-10.082 14.776-17.23s-1.58-14.69-7.992-21.242a45.431 45.431 0 0 0-12.037-8.659 57.488 57.488 0 0 0-16.028-5.273c-9.53-1.68-25.449 1.147-46.04 8.175q-11.328 3.892-22.358 8.581m-8.966-1.582s52.857-24.633 78.245-20.156 43.368 22.848 40.161 41.034-26.388 29.303-51.774 24.827-66.632-45.705-66.632-45.705z"/>
                </g>
                <path data-name="패스 112" d="M0 30.306S15.918 14.964 30.081 8.093 62.29 0 62.29 0" transform="rotate(3 -6177.185 7132.699)" style="fill:none;stroke:#000;stroke-linecap:round;stroke-width:2.6px"/>
                <path data-name="패스 113" d="M45.5 22.061A220.154 220.154 0 0 0 23.587 9.6 227.673 227.673 0 0 0 0 0" transform="rotate(-18 1276.021 -793.575)" style="fill:none;stroke:#000;stroke-linecap:round;stroke-width:2.6px"/>
            </g>
        </g>
    </g>
</svg>
