<svg xmlns="http://www.w3.org/2000/svg" width="132.766" height="139.924" viewBox="0 0 132.766 139.924">
    <g data-name="그룹 471">
        <path data-name="패스 114" d="M57.661 101.792a5.339 5.339 0 0 1-1.219 3.847q-1.219 1.257-4.494 1.257H16.681q-3.352 0-4.57-1.143t-1.219-4.189V81.609a.83.83 0 0 1 .3-.647 1.014 1.014 0 0 1 .686-.267h6.7a1.161 1.161 0 0 1 .724.267.8.8 0 0 1 .343.647v6.551h29.25v-6.551a.947.947 0 0 1 .3-.686.947.947 0 0 1 .686-.3h6.786a.947.947 0 0 1 .686.3.947.947 0 0 1 .3.686zM8.988 63.097a1.373 1.373 0 0 1-1.752-.914l-1.447-4.342a.958.958 0 0 1 .19-.914 1.255 1.255 0 0 1 .724-.533q4.8-.838 9.864-2.171t9.56-2.814q4.494-1.485 8.15-3.009a59.042 59.042 0 0 0 5.713-2.666 2.714 2.714 0 0 0 1.219-1.028q.229-.5-1.371-.5h-27.5a.875.875 0 0 1-.99-.99v-5.1q0-.914.99-.914h36.181a10.894 10.894 0 0 1 4.875.952 3 3 0 0 1 1.9 2.78 4.8 4.8 0 0 1-1.027 3.006 15.61 15.61 0 0 1-1.79 2.019 40.069 40.069 0 0 1-8.683 5.789q1.98.533 4.418 1.066t4.951 1.028q2.514.5 4.989.952t4.608.762a1.323 1.323 0 0 1 .914.457.96.96 0 0 1 .076.99l-1.523 4.113a1.756 1.756 0 0 1-.609.724 1.2 1.2 0 0 1-1.066.19q-2.818-.457-6.17-1.1t-6.815-1.451q-3.466-.8-6.893-1.676t-6.4-1.714q-5.56 2.133-11.959 3.923T8.988 63.097zm59.566 10.359a1.225 1.225 0 0 1-.381.8 1.063 1.063 0 0 1-.762.419H38.619v8.3a.943.943 0 0 1-1.066 1.066h-6.627a.943.943 0 0 1-1.066-1.066v-8.3H1.067a.938.938 0 0 1-.762-.381 1.311 1.311 0 0 1-.3-.838v-4.947a1.166 1.166 0 0 1 .3-.8.977.977 0 0 1 .762-.343h66.345a1.1 1.1 0 0 1 .762.381 1.1 1.1 0 0 1 .381.762zM48.902 95.089h-29.25v3.5q0 1.295 1.447 1.295h26.355q1.447 0 1.447-1.295zm83.865-1.523a10.627 10.627 0 0 1-1.714 5.865 14.955 14.955 0 0 1-4.761 4.57 24.665 24.665 0 0 1-7.236 2.933 37.962 37.962 0 0 1-9.064 1.028 39.716 39.716 0 0 1-9.445-1.028 23.736 23.736 0 0 1-7.122-2.894 13.434 13.434 0 0 1-4.496-4.531 11.537 11.537 0 0 1-1.562-5.943 11.193 11.193 0 0 1 1.562-5.827 13.9 13.9 0 0 1 4.494-4.53 23.115 23.115 0 0 1 7.122-2.933 39.716 39.716 0 0 1 9.445-1.028 37.962 37.962 0 0 1 9.064 1.028 25.353 25.353 0 0 1 7.236 2.894 14.756 14.756 0 0 1 4.761 4.494 10.571 10.571 0 0 1 1.716 5.902zm-8.988.229a5.213 5.213 0 0 0-1.1-3.313 8.661 8.661 0 0 0-3.012-2.363 17.357 17.357 0 0 0-4.418-1.447 27.147 27.147 0 0 0-5.256-.5 21.892 21.892 0 0 0-9.9 1.9 6.1 6.1 0 0 0-3.732 5.713 5.153 5.153 0 0 0 .99 3.161 7.727 7.727 0 0 0 2.816 2.256 16.168 16.168 0 0 0 4.342 1.371 30.709 30.709 0 0 0 5.484.457 29.341 29.341 0 0 0 5.256-.457 17.374 17.374 0 0 0 4.418-1.371 8.738 8.738 0 0 0 3.009-2.247 4.8 4.8 0 0 0 1.101-3.161zm-43.647-14.93a2.46 2.46 0 0 1-1.447.267 1.441 1.441 0 0 1-.99-.876l-1.9-3.961a2.168 2.168 0 0 1-.19-1.295 1.441 1.441 0 0 1 .876-.99A49.861 49.861 0 0 0 92.09 61.955a31.07 31.07 0 0 0 8.377-13.025 3.221 3.221 0 0 0 .229-1.676q-.152-.457-1.295-.457h-20.49a.912.912 0 0 1-.8-.381 1.429 1.429 0 0 1-.267-.838v-5.027q0-1.066 1.143-1.066h25.593q3.352 0 4.723 1.066a4.169 4.169 0 0 1 1.371 3.5 7.155 7.155 0 0 1-.076.876q-.076.571-.19 1.181t-.229 1.1q-.114.5-.19.724a42.124 42.124 0 0 1-10.359 18.2 56.271 56.271 0 0 1-19.498 12.733zm43.341-1.756v-40.37a.875.875 0 0 1 .99-.99h6.779a.875.875 0 0 1 .99.99v40.37q0 1.066-.99 1.066h-6.775q-.994.004-.994-1.066z"/>
        <path data-name="패스 115" d="M14.801 132.529a.319.319 0 0 1-.2.162.467.467 0 0 1-.337-.135q-.648-.486-1.376-1.12t-1.43-1.349q-.7-.715-1.376-1.484t-1.242-1.525a26.658 26.658 0 0 1-3.077 3.252 40.375 40.375 0 0 1-3.94 3.09 1.19 1.19 0 0 1-.27.121.182.182 0 0 1-.216-.067l-.648-.837a.342.342 0 0 1-.081-.283.353.353 0 0 1 .135-.229 31.03 31.03 0 0 0 6.734-6.181 19.008 19.008 0 0 0 3.36-6.531.775.775 0 0 0 .014-.553q-.094-.175-.472-.175H2.201q-.324 0-.324-.351v-.95q0-.324.378-.324h8.853q1.4 0 1.781.486t0 1.727a24.107 24.107 0 0 1-2.971 6.347q.621.864 1.322 1.7t1.4 1.579q.7.742 1.4 1.349a12.407 12.407 0 0 0 1.322 1.012.309.309 0 0 1 .135.243.4.4 0 0 1-.081.243zm5.587 7.017a.334.334 0 0 1-.378.378h-1.107a.334.334 0 0 1-.378-.378v-24.128a.334.334 0 0 1 .378-.378h1.107a.334.334 0 0 1 .378.378zm7.719-23.427a.265.265 0 0 1 .135-.243.521.521 0 0 1 .27-.081H42.79a3.27 3.27 0 0 1 1.039.135 1.344 1.344 0 0 1 .607.391 1.559 1.559 0 0 1 .31.661 4.332 4.332 0 0 1 .094.972 25.79 25.79 0 0 1-.256 4.291q-.31 2.186-.85 4.723h4.453a.468.468 0 0 1 .27.094.3.3 0 0 1 .135.256v.918a.309.309 0 0 1-.135.243.432.432 0 0 1-.27.108H37.58v10.769a.448.448 0 0 1-.094.283.308.308 0 0 1-.256.121h-1.161a.32.32 0 0 1-.243-.121.413.413 0 0 1-.108-.283v-10.772H25.246a.413.413 0 0 1-.283-.108.32.32 0 0 1-.121-.243v-.918a.308.308 0 0 1 .121-.256.448.448 0 0 1 .283-.094h16.653q.27-1.053.513-2.294t.391-2.483q.148-1.242.2-2.348a15.933 15.933 0 0 0 0-1.862.942.942 0 0 0-.148-.472.747.747 0 0 0-.472-.094H28.512a.468.468 0 0 1-.27-.094.275.275 0 0 1-.135-.229zm45.451 10.418a.468.468 0 0 1 .27.094.3.3 0 0 1 .135.256v.918a.309.309 0 0 1-.135.243.432.432 0 0 1-.27.108h-22.94a.413.413 0 0 1-.283-.108.32.32 0 0 1-.121-.243v-.921a.308.308 0 0 1 .121-.256.448.448 0 0 1 .283-.094zm-2.807 12.9a.282.282 0 0 1-.121.229.381.381 0 0 1-.229.094H56.018a2.147 2.147 0 0 1-1.66-.472 2.545 2.545 0 0 1-.391-1.606v-1.592a1.928 1.928 0 0 1 .472-1.525 2.713 2.713 0 0 1 1.687-.391h11.633q.378 0 .472-.108a.883.883 0 0 0 .094-.513v-1.026a.883.883 0 0 0-.094-.513q-.094-.108-.472-.108H54.287a.455.455 0 0 1-.256-.081.248.248 0 0 1-.121-.216v-.945a.248.248 0 0 1 .121-.216.455.455 0 0 1 .256-.081h13.738a4.778 4.778 0 0 1 1.053.094 1.454 1.454 0 0 1 .648.31 1.146 1.146 0 0 1 .337.607 4.151 4.151 0 0 1 .094.958v1.457a1.928 1.928 0 0 1-.472 1.525 2.713 2.713 0 0 1-1.687.391H56.365q-.378 0-.472.108a.883.883 0 0 0-.094.513v1.242a.8.8 0 0 0 .108.5.673.673 0 0 0 .486.121h13.981a.455.455 0 0 1 .256.081.248.248 0 0 1 .121.216zm-.216-15.438a.282.282 0 0 1-.121.229.381.381 0 0 1-.229.094H56.118a2.147 2.147 0 0 1-1.66-.472 2.545 2.545 0 0 1-.391-1.606v-1.46a1.928 1.928 0 0 1 .472-1.525 2.713 2.713 0 0 1 1.687-.391H67.67a.747.747 0 0 0 .472-.094.878.878 0 0 0 .094-.526v-1.107a.883.883 0 0 0-.094-.513q-.094-.108-.472-.108H54.449a.455.455 0 0 1-.256-.081.248.248 0 0 1-.121-.216v-.972a.248.248 0 0 1 .121-.216.455.455 0 0 1 .256-.081h13.522a4.779 4.779 0 0 1 1.053.094 1.454 1.454 0 0 1 .648.31 1.146 1.146 0 0 1 .337.607 4.15 4.15 0 0 1 .094.958v1.565a1.924 1.924 0 0 1-.472 1.538 2.788 2.788 0 0 1-1.687.378H56.473q-.378 0-.472.108a.883.883 0 0 0-.094.513v1.134a.8.8 0 0 0 .108.5.673.673 0 0 0 .486.121h13.657a.455.455 0 0 1 .256.081.248.248 0 0 1 .121.216zm27.61-2.591a4.228 4.228 0 0 1-.486 1.984 5.183 5.183 0 0 1-1.349 1.633 6.8 6.8 0 0 1-2.051 1.12 7.748 7.748 0 0 1-2.591.418 7.655 7.655 0 0 1-2.537-.4 6.322 6.322 0 0 1-2.011-1.12 5.416 5.416 0 0 1-1.336-1.646 4.228 4.228 0 0 1-.486-1.984 4.617 4.617 0 0 1 .486-2.119 5.018 5.018 0 0 1 1.334-1.65 6.027 6.027 0 0 1 2.011-1.053 8.434 8.434 0 0 1 2.537-.364 8.011 8.011 0 0 1 2.47.378 6.874 6.874 0 0 1 2.065 1.053 5.128 5.128 0 0 1 1.417 1.633 4.327 4.327 0 0 1 .527 2.119zm-1.889-.027a2.975 2.975 0 0 0-.364-1.484 3.306 3.306 0 0 0-1-1.093 4.7 4.7 0 0 0-1.474-.674 6.605 6.605 0 0 0-1.754-.229 6.18 6.18 0 0 0-1.781.243 4.616 4.616 0 0 0-1.417.688 3.143 3.143 0 0 0-.945 1.093 3.107 3.107 0 0 0-.337 1.457 3.153 3.153 0 0 0 .324 1.43 3.316 3.316 0 0 0 .918 1.12 4.308 4.308 0 0 0 1.417.729 6.106 6.106 0 0 0 1.822.256 5.679 5.679 0 0 0 1.753-.269 5.022 5.022 0 0 0 1.471-.742 3.577 3.577 0 0 0 1-1.12 2.815 2.815 0 0 0 .367-1.402zm7.8 18.164a.334.334 0 0 1-.378.378h-1.107a.334.334 0 0 1-.378-.378v-24.127a.334.334 0 0 1 .378-.378h1.107a.334.334 0 0 1 .378.378zm-3.86-10.877a.365.365 0 0 1 .256.04.28.28 0 0 1 .148.175l.135.918q.027.378-.324.4-1.754.27-3.7.472t-3.887.337v8.043a.448.448 0 0 1-.094.283.308.308 0 0 1-.256.121h-1.156a.32.32 0 0 1-.243-.121.413.413 0 0 1-.108-.283v-7.962q-.864.054-1.862.081l-1.957.054q-.958.027-1.822.04t-1.43-.013a.413.413 0 0 1-.283-.108.32.32 0 0 1-.121-.243v-.918a.308.308 0 0 1 .121-.256.448.448 0 0 1 .283-.094q.783 0 1.876-.013t2.24-.04q1.147-.027 2.213-.067l1.795-.067q.783-.027 1.822-.108t2.159-.189q1.12-.108 2.213-.229t1.982-.251zm22.212-1.673a4.049 4.049 0 0 1-.432 1.835 4.9 4.9 0 0 1-1.174 1.511 5.41 5.41 0 0 1-1.768 1.012 6.565 6.565 0 0 1-2.213.364 6.564 6.564 0 0 1-2.213-.364 5.41 5.41 0 0 1-1.768-1.012 4.723 4.723 0 0 1-1.161-1.511 4.156 4.156 0 0 1-.418-1.835 4.071 4.071 0 0 1 .418-1.822 4.622 4.622 0 0 1 1.161-1.484 5.548 5.548 0 0 1 1.768-1 6.564 6.564 0 0 1 2.21-.362 6.564 6.564 0 0 1 2.213.364 5.548 5.548 0 0 1 1.768 1 4.793 4.793 0 0 1 1.174 1.484 3.966 3.966 0 0 1 .436 1.821zm6.073 6.855a.334.334 0 0 1-.378.378h-1.106a.334.334 0 0 1-.378-.378v-18.432a.334.334 0 0 1 .378-.378h1.107a.334.334 0 0 1 .378.378v8.934h3.725a.448.448 0 0 1 .283.094.308.308 0 0 1 .121.256v.918a.32.32 0 0 1-.121.243.413.413 0 0 1-.283.108h-3.726zm-7.908-6.855a2.6 2.6 0 0 0-.283-1.2 2.963 2.963 0 0 0-.783-.958 3.745 3.745 0 0 0-1.189-.634 4.711 4.711 0 0 0-1.5-.229 4.587 4.587 0 0 0-1.484.229 3.95 3.95 0 0 0-1.188.634 2.893 2.893 0 0 0-.8.958 2.6 2.6 0 0 0-.283 1.2 2.679 2.679 0 0 0 .283 1.215 2.852 2.852 0 0 0 .8.972 4.189 4.189 0 0 0 1.188.648 4.354 4.354 0 0 0 1.484.243 4.471 4.471 0 0 0 1.5-.243 3.958 3.958 0 0 0 1.188-.648 2.919 2.919 0 0 0 .783-.972 2.679 2.679 0 0 0 .284-1.214zm9.123 12.2a.265.265 0 0 1-.135.243.521.521 0 0 1-.27.081h-13.927a2.147 2.147 0 0 1-1.66-.472 2.491 2.491 0 0 1-.386-1.579v-3.724a.334.334 0 0 1 .378-.378h1.102a.334.334 0 0 1 .378.378v3.617q0 .378.121.459a1.015 1.015 0 0 0 .5.081h13.494a.468.468 0 0 1 .27.094.275.275 0 0 1 .135.229zm-5.02-18.511q0 .351-.4.351h-14.903a.382.382 0 0 1-.255-.111.346.346 0 0 1-.121-.27v-.864a.346.346 0 0 1 .121-.27.382.382 0 0 1 .256-.108h14.9q.4 0 .4.351zm-3.94-3.671q0 .351-.4.351h-7.4a.455.455 0 0 1-.257-.08.272.272 0 0 1-.121-.243v-.945a.366.366 0 0 1 .108-.27.336.336 0 0 1 .243-.108h7.422q.4 0 .4.378z"/>
        <g data-name="그룹 470" style="isolation:isolate">
            <g data-name="그룹 462">
                <path data-name="패스 111" d="M-3.24 18.46s1.354-1.959 1.806-6.574A95.526 95.526 0 0 0-1.434 0" transform="translate(69.134 21.724)" style="fill:none;stroke:#000;stroke-linecap:round;stroke-width:2.6px"/>
                <g data-name="패스 109">
                    <path data-name="패스 120" d="M9.213 31.983C4.133 31.983 0 26.4 0 19.527c0-2.845 1.678-7.244 4.852-12.722Q6.888 3.312 9.212 0q2.323 3.309 4.362 6.806c3.175 5.478 4.852 9.877 4.852 12.722 0 6.867-4.133 12.455-9.214 12.455z" transform="rotate(73.02 46.716 64.531)" style="fill:#00b786"/>
                    <path data-name="패스 121" d="M96.325 10.168q-3.35-1.054-6.77-1.86c-6.05-1.411-10.632-1.736-13.24-.94a15.45 15.45 0 0 0-4.286 2.055 12.577 12.577 0 0 0-3.043 2.924 7.47 7.47 0 0 0-1.433 6.606 7.473 7.473 0 0 0 4.88 4.68 12.587 12.587 0 0 0 4.16.726 15.45 15.45 0 0 0 4.703-.69c2.602-.795 6.215-3.616 10.438-8.158q2.396-2.582 4.59-5.343m2.291-.7s-9.976 13.398-16.92 15.518-13.864-.395-15.463-5.63S68.97 8.17 75.913 6.05s22.702 3.42 22.702 3.42z"/>
                </g>
                <g data-name="패스 110">
                    <path data-name="패스 122" d="M8.43 30.871a7.352 7.352 0 0 1-5.888-3.44 13.112 13.112 0 0 1-1.855-3.844A16.387 16.387 0 0 1 0 18.832c0-2.757 1.545-7.017 4.468-12.322Q6.316 3.175 8.43 0q2.113 3.173 3.961 6.509c2.923 5.3 4.468 9.566 4.468 12.322a16.385 16.385 0 0 1-.687 4.755 13.112 13.112 0 0 1-1.855 3.845 7.351 7.351 0 0 1-5.887 3.44z" transform="rotate(-80 32.375 -8.812)" style="fill:#00b786"/>
                    <path data-name="패스 123" d="M38.13 16.517q2.39 2.23 4.932 4.285c4.624 3.723 8.438 5.931 11.035 6.39a15.7 15.7 0 0 0 4.6.143 12.42 12.42 0 0 0 3.892-1.096 6.685 6.685 0 0 0 4.03-4.7 6.686 6.686 0 0 0-2.18-5.793 12.39 12.39 0 0 0-3.283-2.359 15.678 15.678 0 0 0-4.372-1.438c-2.598-.458-6.94.313-12.555 2.23q-3.09 1.06-6.097 2.338m-2.446-.431S50.1 9.368 57.024 10.588 68.852 16.82 67.978 21.78s-7.198 7.992-14.12 6.771-18.172-12.464-18.172-12.464z"/>
                </g>
                <path data-name="패스 112" d="M0 8.265a39.977 39.977 0 0 1 8.2-6.058A27.644 27.644 0 0 1 16.987 0" transform="rotate(3 -195.246 1312.398)" style="fill:none;stroke:#000;stroke-linecap:round;stroke-width:2.6px"/>
                <path data-name="패스 113" d="M12.409 6.016a60.039 60.039 0 0 0-5.977-3.4A62.09 62.09 0 0 0 0 0" transform="rotate(-18 83.644 -157.72)" style="fill:none;stroke:#000;stroke-linecap:round;stroke-width:2.6px"/>
            </g>
        </g>
    </g>
</svg>
