<svg xmlns="http://www.w3.org/2000/svg" width="46.6" height="46.6" viewBox="0 0 46.6 46.6">
    <path d="M19.417 46.6H0v-3.883h19.417zm-3.884-11.65H0v3.883h15.533zm-3.883-7.767H0v3.883h11.65zm34.933-4.8A23.325 23.325 0 0 1 23.3 46.6v-3.883a3.883 3.883 0 0 0-3.883-3.883V34.95a3.883 3.883 0 0 0-3.883-3.883v-3.884A3.883 3.883 0 0 0 11.65 23.3H0A23.327 23.327 0 0 1 24.222.017 23.521 23.521 0 0 1 46.583 22.38zM21.358 11.248V21.76l6.394 6.394 2.748-2.745-5.256-5.256v-8.9z" style="fill:#ff8900"/>
</svg>
